<svg width="2536" height="560" viewBox="0 0 2536 560" fill="none" xmlns="http://www.w3.org/2000/svg">
<path d="M151.312 18.1816C151.312 11.4923 156.735 6.06946 163.425 6.06946H260.322C267.011 6.06946 272.434 11.4923 272.434 18.1816V115.079C272.434 121.768 267.011 127.191 260.322 127.191H163.425C156.735 127.191 151.312 121.768 151.312 115.079V18.1816Z" fill="#5F9547"/>
<path d="M151.312 160.717C151.312 154.027 156.735 148.605 163.425 148.605H260.322C267.011 148.605 272.434 154.027 272.434 160.717V257.614C272.434 264.303 267.011 269.726 260.322 269.726H163.425C156.735 269.726 151.312 264.303 151.312 257.614V160.717Z" fill="#5F9547"/>
<path d="M151.312 305.362C151.312 298.672 156.735 293.249 163.425 293.249H260.322C267.011 293.249 272.434 298.672 272.434 305.362V402.259C272.434 408.948 267.011 414.371 260.322 414.371H163.425C156.735 414.371 151.312 408.948 151.312 402.259V305.362Z" fill="#5F9547"/>
<path d="M151.312 450.006C151.312 443.316 156.735 437.894 163.425 437.894H260.322C267.011 437.894 272.434 443.316 272.434 450.006V546.903C272.434 553.592 267.011 559.015 260.322 559.015H163.425C156.735 559.015 151.312 553.592 151.312 546.903V450.006Z" fill="#5F9547"/>
<path d="M5.9375 161.068C5.9375 154.379 11.3603 148.956 18.0497 148.956H114.947C121.636 148.956 127.059 154.379 127.059 161.068V257.966C127.059 264.655 121.636 270.078 114.947 270.078H18.0497C11.3603 270.078 5.9375 264.655 5.9375 257.966V161.068Z" fill="#5F9547"/>
<path d="M5.9375 305.713C5.9375 299.024 11.3603 293.601 18.0497 293.601H114.947C121.636 293.601 127.059 299.024 127.059 305.713V402.61C127.059 409.3 121.636 414.722 114.947 414.722H18.0497C11.3603 414.722 5.9375 409.3 5.9375 402.61V305.713Z" fill="#5F9547"/>
<path d="M5.9375 450.357C5.9375 443.668 11.3603 438.245 18.0497 438.245H114.947C121.636 438.245 127.059 443.668 127.059 450.357V547.255C127.059 553.944 121.636 559.367 114.947 559.367H18.0497C11.3603 559.367 5.9375 553.944 5.9375 547.255V450.357Z" fill="#5F9547"/>
<path d="M295.25 18.1819C295.25 11.4925 300.673 6.0697 307.362 6.0697H404.259C410.949 6.0697 416.372 11.4925 416.372 18.1819V115.079C416.372 121.769 410.949 127.191 404.259 127.191H307.362C300.673 127.191 295.25 121.769 295.25 115.079V18.1819Z" fill="#5F9547"/>
<path d="M295.25 305.362C295.25 298.672 300.673 293.249 307.362 293.249H404.259C410.949 293.249 416.372 298.672 416.372 305.362V402.259C416.372 408.948 410.949 414.371 404.259 414.371H307.362C300.673 414.371 295.25 408.948 295.25 402.259V305.362Z" fill="#5F9547"/>
<path d="M0 66.8054C0 29.9654 29.8647 0.100708 66.7047 0.100708C103.545 0.100708 133.409 29.9654 133.409 66.8054C133.409 103.645 103.545 133.51 66.7047 133.51C29.8647 133.51 0 103.645 0 66.8054Z" fill="#9F272D"/>
<path d="M549.01 6.10095C549.641 6.10097 550.261 6.14944 550.866 6.24255L670.591 7.14099C733.697 7.45304 777.467 54.3331 784.952 112.751C792.126 169.402 785.16 221.064 735.776 262.851C793.061 292.268 805.953 344.761 803.77 404.635C800.755 489.144 747.524 559.101 658.219 559.101H550.728C550.166 559.181 549.593 559.223 549.01 559.223H452.112C445.423 559.223 440 553.8 440 547.111V305.362C440 298.672 445.423 293.249 452.112 293.249H549.01C555.699 293.25 561.122 298.672 561.122 305.362V473.077C584.703 481.386 635.473 484.665 656.659 465.653C693.463 432.597 694.086 363.368 661.753 326.259C651.736 314.737 622.371 312.28 595.761 309.101H584.9C580.537 309.101 577 305.564 577 301.201V238.001C577 233.638 580.537 230.101 584.9 230.101H593.871C629.8 226.343 655.274 219.734 663.521 198.092C675.165 167.324 674.541 124.601 653.956 102.564C637.219 84.6867 585.453 80.4237 561.122 91.8539V258.111C561.122 264.8 555.699 270.223 549.01 270.223H452.112C445.423 270.223 440 264.8 440 258.111V18.2133C440 11.5239 445.423 6.10095 452.112 6.10095H549.01Z" fill="#5F9547"/>
<path d="M941 456.16C941 460.579 937.418 464.16 933 464.16C928.582 464.16 925 460.579 925 456.16L925 103.312C925 98.8934 928.582 95.3116 933 95.3116C937.418 95.3116 941 98.8934 941 103.312L941 456.16Z" fill="#434343"/>
<path d="M1528.71 123.349L1318.54 2.00499C1317.64 1.45362 1316.68 1.0025 1315.68 0.676686C1315.63 0.659977 1315.58 0.643269 1315.53 0.626561C1315.31 0.559728 1315.09 0.492895 1314.88 0.434416C1314.78 0.409353 1314.68 0.384291 1314.59 0.359228C1314.42 0.317458 1314.23 0.275687 1314.06 0.24227C1313.94 0.217208 1313.82 0.200499 1313.72 0.183791C1313.55 0.158729 1313.37 0.125312 1313.21 0.108604C1313.1 0.0918956 1312.98 0.0835414 1312.87 0.0668332C1312.69 0.0501249 1312.5 0.0334166 1312.32 0.0250624C1312.23 0.0250624 1312.14 0.0167083 1312.04 0.00835414C1311.83 0.00835414 1311.62 0 1311.41 0C1311.34 0 1311.28 0 1311.21 0C1310.98 0 1310.74 0.0167083 1310.51 0.0334166C1310.47 0.0334166 1310.42 0.0334166 1310.38 0.0417707C1310.13 0.0668332 1309.89 0.0918956 1309.64 0.125312C1309.61 0.125312 1309.58 0.133666 1309.55 0.14202C1309.3 0.183791 1309.05 0.225562 1308.8 0.275687C1308.77 0.275687 1308.73 0.292395 1308.69 0.300749C1308.46 0.350874 1308.23 0.409353 1308 0.476186C1307.93 0.492895 1307.87 0.517957 1307.8 0.534665C1307.61 0.593144 1307.42 0.651623 1307.22 0.718456C1307.09 0.760227 1306.97 0.810352 1306.84 0.860477C1306.71 0.910602 1306.59 0.952372 1306.46 1.01085C1305.85 1.26148 1305.24 1.57058 1304.68 1.9131L1094.31 123.349C1085.4 128.495 1085.4 141.36 1094.31 146.507L1163.52 186.465C1195.8 139.197 1250.12 108.169 1311.67 108.169C1373.22 108.169 1427.43 139.138 1459.72 186.331L1528.7 146.507C1537.61 141.36 1537.61 128.495 1528.7 123.349H1528.71Z" fill="#9F272D"/>
<path d="M1297.99 299.982C1297.98 299.932 1297.96 299.882 1297.95 299.832C1297.9 299.606 1297.85 299.389 1297.79 299.172C1297.77 299.08 1297.74 298.988 1297.71 298.888C1297.66 298.712 1297.6 298.537 1297.54 298.362C1297.51 298.253 1297.47 298.144 1297.43 298.036C1297.37 297.869 1297.3 297.71 1297.23 297.551C1297.19 297.451 1297.14 297.342 1297.1 297.242C1297.03 297.075 1296.94 296.908 1296.87 296.741C1296.83 296.657 1296.78 296.574 1296.74 296.49C1296.64 296.306 1296.54 296.123 1296.44 295.947C1296.41 295.889 1296.37 295.83 1296.34 295.772C1296.22 295.571 1296.09 295.379 1295.96 295.187C1295.94 295.154 1295.91 295.12 1295.89 295.087C1295.75 294.886 1295.6 294.686 1295.44 294.485C1295.42 294.46 1295.4 294.435 1295.38 294.418C1295.22 294.218 1295.06 294.026 1294.89 293.842C1294.86 293.817 1294.84 293.792 1294.81 293.758C1294.65 293.583 1294.49 293.408 1294.32 293.241C1294.27 293.19 1294.22 293.149 1294.17 293.098C1294.02 292.956 1293.88 292.823 1293.72 292.689C1293.62 292.597 1293.51 292.514 1293.4 292.43C1293.29 292.347 1293.19 292.255 1293.08 292.171C1292.56 291.762 1292 291.394 1291.41 291.068L1081.06 169.616C1072.15 164.47 1061 170.902 1061 181.195V423.891C1060.98 424.944 1061.06 425.996 1061.28 427.024C1061.29 427.074 1061.31 427.124 1061.31 427.174C1061.36 427.391 1061.41 427.617 1061.47 427.834C1061.5 427.926 1061.52 428.026 1061.56 428.118C1061.61 428.294 1061.66 428.469 1061.72 428.644C1061.76 428.753 1061.8 428.862 1061.84 428.97C1061.9 429.129 1061.97 429.296 1062.03 429.455C1062.07 429.563 1062.12 429.664 1062.17 429.764C1062.24 429.931 1062.32 430.098 1062.4 430.265C1062.44 430.349 1062.48 430.432 1062.52 430.516C1062.63 430.7 1062.73 430.883 1062.83 431.059C1062.86 431.117 1062.89 431.176 1062.93 431.234C1063.04 431.435 1063.18 431.627 1063.3 431.819C1063.33 431.852 1063.35 431.894 1063.38 431.928C1063.52 432.128 1063.67 432.329 1063.82 432.529C1063.84 432.554 1063.85 432.579 1063.88 432.596C1064.04 432.788 1064.2 432.989 1064.37 433.172C1064.4 433.197 1064.42 433.231 1064.45 433.256C1064.6 433.431 1064.77 433.598 1064.94 433.766C1064.99 433.816 1065.04 433.857 1065.09 433.908C1065.24 434.05 1065.38 434.183 1065.54 434.317C1065.64 434.409 1065.75 434.492 1065.86 434.584C1065.97 434.668 1066.07 434.76 1066.18 434.843C1066.7 435.253 1067.26 435.62 1067.85 435.946L1278.19 557.39C1287.1 562.536 1298.25 556.104 1298.25 545.811V303.115C1298.27 302.062 1298.19 301.01 1297.97 299.974L1297.99 299.982Z" fill="#5F9547"/>
<path d="M1558.8 433.264C1558.8 433.264 1558.85 433.206 1558.87 433.181C1559.04 432.989 1559.2 432.796 1559.35 432.604C1559.37 432.579 1559.4 432.554 1559.41 432.529C1559.57 432.329 1559.71 432.128 1559.86 431.928C1559.88 431.894 1559.91 431.861 1559.93 431.819C1560.06 431.627 1560.19 431.435 1560.31 431.234C1560.34 431.176 1560.37 431.117 1560.41 431.059C1560.52 430.883 1560.62 430.7 1560.71 430.516C1560.75 430.432 1560.79 430.349 1560.83 430.265C1560.92 430.098 1560.99 429.931 1561.07 429.764C1561.12 429.664 1561.16 429.555 1561.2 429.455C1561.27 429.296 1561.33 429.137 1561.39 428.97C1561.43 428.862 1561.48 428.753 1561.51 428.644C1561.57 428.469 1561.63 428.294 1561.68 428.118C1561.7 428.026 1561.74 427.926 1561.76 427.834C1561.82 427.617 1561.87 427.391 1561.92 427.174C1561.93 427.124 1561.94 427.074 1561.95 427.024C1562.17 425.988 1562.25 424.935 1562.23 423.891V181.195C1562.23 170.902 1551.08 164.47 1542.18 169.616L1331.84 291.06C1331.25 291.386 1330.69 291.753 1330.17 292.163C1330.06 292.246 1329.96 292.33 1329.85 292.413C1329.74 292.505 1329.63 292.589 1329.53 292.681C1329.38 292.814 1329.23 292.948 1329.08 293.09C1329.03 293.14 1328.98 293.182 1328.93 293.232C1328.76 293.399 1328.6 293.575 1328.44 293.742C1328.41 293.767 1328.39 293.8 1328.36 293.825C1328.2 294.017 1328.03 294.21 1327.88 294.402C1327.86 294.427 1327.84 294.452 1327.82 294.477C1327.66 294.677 1327.52 294.87 1327.38 295.078C1327.35 295.112 1327.33 295.145 1327.3 295.187C1327.17 295.379 1327.04 295.571 1326.93 295.772C1326.89 295.83 1326.86 295.889 1326.83 295.947C1326.72 296.123 1326.62 296.306 1326.52 296.49C1326.48 296.574 1326.44 296.657 1326.4 296.741C1326.32 296.908 1326.24 297.075 1326.17 297.242C1326.12 297.342 1326.07 297.451 1326.03 297.551C1325.97 297.71 1325.91 297.869 1325.84 298.036C1325.8 298.144 1325.76 298.253 1325.72 298.362C1325.66 298.537 1325.61 298.712 1325.56 298.888C1325.53 298.98 1325.5 299.08 1325.47 299.172C1325.41 299.389 1325.36 299.615 1325.31 299.832C1325.31 299.882 1325.29 299.932 1325.28 299.982C1325.06 301.018 1324.98 302.062 1325 303.115V545.811C1325 556.104 1336.15 562.536 1345.05 557.39L1555.39 435.946C1555.98 435.62 1556.54 435.253 1557.07 434.843C1557.17 434.76 1557.27 434.676 1557.38 434.584C1557.49 434.501 1557.6 434.409 1557.7 434.317C1557.85 434.183 1558 434.05 1558.15 433.908C1558.2 433.857 1558.25 433.816 1558.3 433.766C1558.47 433.598 1558.64 433.431 1558.8 433.256V433.264Z" fill="#434343"/>
<path d="M1662.21 76.037H1630.69V65.4417H1706.31V76.037H1674.79V160.005H1662.21V76.037Z" fill="#434343"/>
<path d="M1747.75 119.213C1747.58 116.564 1746.96 114.048 1745.9 111.664C1744.93 109.28 1743.56 107.249 1741.79 105.572C1740.11 103.806 1738.08 102.437 1735.7 101.466C1733.4 100.406 1730.84 99.8766 1728.02 99.8766C1725.1 99.8766 1722.46 100.406 1720.07 101.466C1717.78 102.437 1715.79 103.806 1714.11 105.572C1712.43 107.338 1711.11 109.412 1710.14 111.796C1709.17 114.092 1708.59 116.564 1708.42 119.213H1747.75ZM1758.61 138.285C1757.11 145.966 1753.8 151.75 1748.68 155.635C1743.56 159.52 1737.11 161.462 1729.34 161.462C1723.87 161.462 1719.1 160.579 1715.04 158.813C1711.07 157.047 1707.71 154.575 1704.97 151.397C1702.24 148.218 1700.16 144.421 1698.75 140.007C1697.42 135.592 1696.67 130.78 1696.5 125.57C1696.5 120.361 1697.29 115.593 1698.88 111.267C1700.47 106.94 1702.68 103.188 1705.5 100.009C1708.42 96.8304 1711.82 94.3582 1715.7 92.5923C1719.67 90.8264 1724 89.9434 1728.68 89.9434C1734.77 89.9434 1739.81 91.2237 1743.78 93.7843C1747.84 96.2565 1751.06 99.4351 1753.45 103.32C1755.92 107.205 1757.6 111.443 1758.48 116.035C1759.45 120.626 1759.85 124.996 1759.67 129.146H1708.42C1708.33 132.148 1708.68 135.018 1709.48 137.755C1710.27 140.404 1711.55 142.788 1713.32 144.907C1715.08 146.938 1717.33 148.571 1720.07 149.807C1722.81 151.043 1726.03 151.661 1729.74 151.661C1734.51 151.661 1738.39 150.558 1741.39 148.35C1744.48 146.143 1746.52 142.788 1747.49 138.285H1758.61Z" fill="#434343"/>
<path d="M1817.83 113.518C1816.95 109.192 1815.09 105.837 1812.27 103.453C1809.44 101.069 1805.64 99.8766 1800.88 99.8766C1796.81 99.8766 1793.41 100.627 1790.68 102.128C1787.94 103.629 1785.73 105.616 1784.06 108.088C1782.47 110.56 1781.32 113.43 1780.61 116.697C1779.91 119.875 1779.55 123.186 1779.55 126.63C1779.55 129.809 1779.91 132.899 1780.61 135.901C1781.41 138.903 1782.6 141.596 1784.19 143.98C1785.78 146.276 1787.85 148.13 1790.41 149.542C1792.97 150.955 1796.02 151.661 1799.55 151.661C1805.11 151.661 1809.44 150.205 1812.53 147.291C1815.71 144.377 1817.65 140.271 1818.36 134.974H1829.88C1828.64 143.45 1825.47 149.984 1820.34 154.575C1815.31 159.167 1808.42 161.462 1799.68 161.462C1794.47 161.462 1789.84 160.623 1785.78 158.946C1781.8 157.268 1778.45 154.884 1775.71 151.794C1773.06 148.704 1771.03 145.039 1769.62 140.801C1768.29 136.475 1767.63 131.751 1767.63 126.63C1767.63 121.509 1768.29 116.741 1769.62 112.326C1770.94 107.823 1772.93 103.938 1775.58 100.671C1778.32 97.3161 1781.72 94.7114 1785.78 92.8572C1789.84 90.9147 1794.56 89.9434 1799.95 89.9434C1803.83 89.9434 1807.45 90.4291 1810.81 91.4003C1814.25 92.2833 1817.25 93.696 1819.81 95.6385C1822.46 97.5809 1824.63 100.053 1826.3 103.055C1827.98 105.969 1829.04 109.457 1829.48 113.518H1817.83Z" fill="#434343"/>
<path d="M1842.48 91.5328H1853.07V102.393H1853.34C1858.02 94.0933 1865.43 89.9434 1875.59 89.9434C1880.09 89.9434 1883.84 90.5615 1886.85 91.7976C1889.85 93.0338 1892.28 94.7555 1894.13 96.9629C1895.98 99.1703 1897.26 101.819 1897.97 104.909C1898.76 107.911 1899.16 111.267 1899.16 114.975V160.005H1887.9V113.651C1887.9 109.412 1886.67 106.057 1884.2 103.585C1881.72 101.113 1878.32 99.8766 1874 99.8766C1870.55 99.8766 1867.55 100.406 1864.99 101.466C1862.52 102.525 1860.44 104.026 1858.77 105.969C1857.09 107.911 1855.81 110.207 1854.93 112.856C1854.13 115.416 1853.73 118.242 1853.73 121.332V160.005H1842.48V91.5328Z" fill="#434343"/>
<path d="M1924.28 125.835C1924.28 129.985 1924.81 133.694 1925.87 136.96C1927.02 140.139 1928.56 142.832 1930.51 145.039C1932.45 147.158 1934.7 148.792 1937.26 149.94C1939.91 151.088 1942.69 151.661 1945.6 151.661C1948.52 151.661 1951.26 151.088 1953.82 149.94C1956.47 148.792 1958.76 147.158 1960.7 145.039C1962.65 142.832 1964.15 140.139 1965.21 136.96C1966.35 133.694 1966.93 129.985 1966.93 125.835C1966.93 121.685 1966.35 118.021 1965.21 114.843C1964.15 111.576 1962.65 108.839 1960.7 106.631C1958.76 104.424 1956.47 102.746 1953.82 101.598C1951.26 100.451 1948.52 99.8766 1945.6 99.8766C1942.69 99.8766 1939.91 100.451 1937.26 101.598C1934.7 102.746 1932.45 104.424 1930.51 106.631C1928.56 108.839 1927.02 111.576 1925.87 114.843C1924.81 118.021 1924.28 121.685 1924.28 125.835ZM1912.36 125.835C1912.36 120.802 1913.07 116.123 1914.48 111.796C1915.89 107.382 1918.01 103.585 1920.84 100.406C1923.66 97.1395 1927.15 94.5789 1931.3 92.7247C1935.45 90.8705 1940.22 89.9434 1945.6 89.9434C1951.08 89.9434 1955.85 90.8705 1959.91 92.7247C1964.06 94.5789 1967.55 97.1395 1970.37 100.406C1973.2 103.585 1975.32 107.382 1976.73 111.796C1978.14 116.123 1978.85 120.802 1978.85 125.835C1978.85 130.868 1978.14 135.548 1976.73 139.874C1975.32 144.201 1973.2 147.997 1970.37 151.264C1967.55 154.443 1964.06 156.959 1959.91 158.813C1955.85 160.579 1951.08 161.462 1945.6 161.462C1940.22 161.462 1935.45 160.579 1931.3 158.813C1927.15 156.959 1923.66 154.443 1920.84 151.264C1918.01 147.997 1915.89 144.201 1914.48 139.874C1913.07 135.548 1912.36 130.868 1912.36 125.835Z" fill="#434343"/>
<path d="M1992.78 65.4417H2004.04V160.005H1992.78V65.4417Z" fill="#434343"/>
<path d="M2029.69 125.835C2029.69 129.985 2030.22 133.694 2031.28 136.96C2032.43 140.139 2033.97 142.832 2035.92 145.039C2037.86 147.158 2040.11 148.792 2042.67 149.94C2045.32 151.088 2048.1 151.661 2051.02 151.661C2053.93 151.661 2056.67 151.088 2059.23 149.94C2061.88 148.792 2064.17 147.158 2066.11 145.039C2068.06 142.832 2069.56 140.139 2070.62 136.96C2071.76 133.694 2072.34 129.985 2072.34 125.835C2072.34 121.685 2071.76 118.021 2070.62 114.843C2069.56 111.576 2068.06 108.839 2066.11 106.631C2064.17 104.424 2061.88 102.746 2059.23 101.598C2056.67 100.451 2053.93 99.8766 2051.02 99.8766C2048.1 99.8766 2045.32 100.451 2042.67 101.598C2040.11 102.746 2037.86 104.424 2035.92 106.631C2033.97 108.839 2032.43 111.576 2031.28 114.843C2030.22 118.021 2029.69 121.685 2029.69 125.835ZM2017.77 125.835C2017.77 120.802 2018.48 116.123 2019.89 111.796C2021.3 107.382 2023.42 103.585 2026.25 100.406C2029.07 97.1395 2032.56 94.5789 2036.71 92.7247C2040.86 90.8705 2045.63 89.9434 2051.02 89.9434C2056.49 89.9434 2061.26 90.8705 2065.32 92.7247C2069.47 94.5789 2072.96 97.1395 2075.78 100.406C2078.61 103.585 2080.73 107.382 2082.14 111.796C2083.55 116.123 2084.26 120.802 2084.26 125.835C2084.26 130.868 2083.55 135.548 2082.14 139.874C2080.73 144.201 2078.61 147.997 2075.78 151.264C2072.96 154.443 2069.47 156.959 2065.32 158.813C2061.26 160.579 2056.49 161.462 2051.02 161.462C2045.63 161.462 2040.86 160.579 2036.71 158.813C2032.56 156.959 2029.07 154.443 2026.25 151.264C2023.42 147.997 2021.3 144.201 2019.89 139.874C2018.48 135.548 2017.77 130.868 2017.77 125.835Z" fill="#434343"/>
<path d="M2156.6 154.178C2156.6 165.391 2154.04 173.779 2148.92 179.342C2143.8 184.904 2135.76 187.686 2124.81 187.686C2121.64 187.686 2118.37 187.333 2115.01 186.626C2111.75 185.92 2108.75 184.772 2106.01 183.183C2103.36 181.593 2101.15 179.518 2099.39 176.958C2097.62 174.397 2096.65 171.263 2096.47 167.555H2107.73C2107.82 169.585 2108.44 171.307 2109.58 172.72C2110.82 174.133 2112.28 175.28 2113.95 176.163C2115.72 177.046 2117.62 177.664 2119.65 178.017C2121.68 178.459 2123.62 178.68 2125.48 178.68C2129.19 178.68 2132.32 178.017 2134.88 176.693C2137.44 175.457 2139.56 173.691 2141.24 171.395C2142.92 169.188 2144.11 166.495 2144.81 163.316C2145.61 160.138 2146.01 156.65 2146.01 152.853V148.35H2145.74C2143.8 152.589 2140.84 155.723 2136.87 157.754C2132.98 159.696 2128.83 160.668 2124.42 160.668C2119.3 160.668 2114.84 159.74 2111.04 157.886C2107.24 156.032 2104.07 153.56 2101.5 150.47C2098.94 147.291 2097 143.627 2095.68 139.477C2094.44 135.239 2093.82 130.78 2093.82 126.1C2093.82 122.039 2094.35 117.889 2095.41 113.651C2096.47 109.324 2098.24 105.439 2100.71 101.996C2103.18 98.4639 2106.45 95.5943 2110.51 93.3869C2114.57 91.0913 2119.56 89.9434 2125.48 89.9434C2129.8 89.9434 2133.78 90.9147 2137.4 92.8572C2141.02 94.7114 2143.84 97.5368 2145.87 101.333H2146.01V91.5328H2156.6V154.178ZM2125.08 150.867C2128.79 150.867 2131.92 150.116 2134.48 148.615C2137.13 147.026 2139.25 144.995 2140.84 142.523C2142.43 139.962 2143.58 137.093 2144.28 133.914C2145.08 130.736 2145.48 127.557 2145.48 124.378C2145.48 121.376 2145.12 118.419 2144.42 115.505C2143.71 112.591 2142.56 109.986 2140.97 107.691C2139.47 105.307 2137.48 103.408 2135.01 101.996C2132.54 100.583 2129.54 99.8766 2126.01 99.8766C2122.39 99.8766 2119.3 100.583 2116.74 101.996C2114.18 103.32 2112.06 105.13 2110.38 107.426C2108.79 109.721 2107.6 112.37 2106.8 115.372C2106.1 118.374 2105.74 121.509 2105.74 124.776C2105.74 127.866 2106.05 130.956 2106.67 134.047C2107.29 137.137 2108.35 139.962 2109.85 142.523C2111.35 144.995 2113.34 147.026 2115.81 148.615C2118.28 150.116 2121.37 150.867 2125.08 150.867Z" fill="#434343"/>
<path d="M2185.5 79.2156H2174.24V65.4417H2185.5V79.2156ZM2174.24 91.5328H2185.5V160.005H2174.24V91.5328Z" fill="#434343"/>
<path d="M2263.6 159.74C2261.66 160.888 2258.97 161.462 2255.52 161.462C2252.61 161.462 2250.27 160.668 2248.5 159.078C2246.82 157.401 2245.99 154.708 2245.99 150.999C2242.9 154.708 2239.28 157.401 2235.13 159.078C2231.06 160.668 2226.65 161.462 2221.88 161.462C2218.79 161.462 2215.83 161.109 2213.01 160.403C2210.27 159.696 2207.89 158.593 2205.86 157.092C2203.83 155.591 2202.19 153.648 2200.96 151.264C2199.81 148.792 2199.23 145.834 2199.23 142.391C2199.23 138.506 2199.9 135.327 2201.22 132.855C2202.54 130.382 2204.27 128.396 2206.39 126.895C2208.59 125.306 2211.07 124.114 2213.8 123.319C2216.63 122.524 2219.5 121.862 2222.41 121.332C2225.5 120.714 2228.42 120.273 2231.15 120.008C2233.98 119.655 2236.45 119.213 2238.57 118.683C2240.69 118.065 2242.37 117.227 2243.6 116.167C2244.84 115.019 2245.46 113.386 2245.46 111.267C2245.46 108.794 2244.97 106.808 2244 105.307C2243.12 103.806 2241.92 102.658 2240.42 101.863C2239.01 101.069 2237.38 100.539 2235.52 100.274C2233.76 100.009 2231.99 99.8766 2230.23 99.8766C2225.46 99.8766 2221.48 100.804 2218.31 102.658C2215.13 104.424 2213.41 107.823 2213.14 112.856H2201.88C2202.06 108.618 2202.94 105.042 2204.53 102.128C2206.12 99.2144 2208.24 96.8746 2210.89 95.1087C2213.54 93.2545 2216.54 91.9301 2219.89 91.1354C2223.34 90.3408 2227 89.9434 2230.89 89.9434C2233.98 89.9434 2237.02 90.1642 2240.03 90.6057C2243.12 91.0471 2245.9 91.9742 2248.37 93.3869C2250.84 94.7114 2252.83 96.6097 2254.33 99.082C2255.83 101.554 2256.58 104.777 2256.58 108.75V143.98C2256.58 146.629 2256.71 148.571 2256.98 149.807C2257.33 151.043 2258.39 151.661 2260.16 151.661C2261.13 151.661 2262.28 151.441 2263.6 150.999V159.74ZM2245.32 124.643C2243.91 125.703 2242.06 126.497 2239.76 127.027C2237.47 127.469 2235.04 127.866 2232.48 128.219C2230 128.484 2227.49 128.837 2224.93 129.279C2222.37 129.632 2220.07 130.25 2218.04 131.133C2216.01 132.016 2214.33 133.296 2213.01 134.974C2211.77 136.563 2211.15 138.77 2211.15 141.596C2211.15 143.45 2211.51 145.039 2212.21 146.364C2213.01 147.6 2213.98 148.615 2215.13 149.41C2216.36 150.205 2217.78 150.779 2219.36 151.132C2220.95 151.485 2222.63 151.661 2224.4 151.661C2228.11 151.661 2231.28 151.176 2233.93 150.205C2236.58 149.145 2238.75 147.865 2240.42 146.364C2242.1 144.775 2243.34 143.097 2244.13 141.331C2244.93 139.477 2245.32 137.755 2245.32 136.166V124.643Z" fill="#434343"/>
<path d="M2358.49 119.213C2358.31 116.564 2357.69 114.048 2356.63 111.664C2355.66 109.28 2354.29 107.249 2352.53 105.572C2350.85 103.806 2348.82 102.437 2346.43 101.466C2344.14 100.406 2341.58 99.8766 2338.75 99.8766C2335.84 99.8766 2333.19 100.406 2330.81 101.466C2328.51 102.437 2326.52 103.806 2324.85 105.572C2323.17 107.338 2321.84 109.412 2320.87 111.796C2319.9 114.092 2319.33 116.564 2319.15 119.213H2358.49ZM2369.35 138.285C2367.85 145.966 2364.53 151.75 2359.41 155.635C2354.29 159.52 2347.85 161.462 2340.08 161.462C2334.6 161.462 2329.83 160.579 2325.77 158.813C2321.8 157.047 2318.44 154.575 2315.71 151.397C2312.97 148.218 2310.9 144.421 2309.48 140.007C2308.16 135.592 2307.41 130.78 2307.23 125.57C2307.23 120.361 2308.03 115.593 2309.61 111.267C2311.2 106.94 2313.41 103.188 2316.24 100.009C2319.15 96.8304 2322.55 94.3582 2326.44 92.5923C2330.41 90.8264 2334.73 89.9434 2339.41 89.9434C2345.51 89.9434 2350.54 91.2237 2354.51 93.7843C2358.57 96.2565 2361.8 99.4351 2364.18 103.32C2366.65 107.205 2368.33 111.443 2369.21 116.035C2370.19 120.626 2370.58 124.996 2370.41 129.146H2319.15C2319.06 132.148 2319.42 135.018 2320.21 137.755C2321 140.404 2322.29 142.788 2324.05 144.907C2325.82 146.938 2328.07 148.571 2330.81 149.807C2333.54 151.043 2336.77 151.661 2340.47 151.661C2345.24 151.661 2349.13 150.558 2352.13 148.35C2355.22 146.143 2357.25 142.788 2358.22 138.285H2369.35Z" fill="#434343"/>
<path d="M2382.08 91.5328H2392.67V101.598H2392.94C2398.06 93.8284 2405.43 89.9434 2415.05 89.9434C2419.29 89.9434 2423.13 90.8264 2426.58 92.5923C2430.02 94.3582 2432.45 97.3602 2433.86 101.598C2436.16 97.89 2439.16 95.0204 2442.87 92.9896C2446.66 90.9588 2450.81 89.9434 2455.32 89.9434C2458.76 89.9434 2461.85 90.3408 2464.59 91.1354C2467.41 91.8418 2469.8 92.9896 2471.74 94.5789C2473.77 96.1682 2475.31 98.2432 2476.37 100.804C2477.52 103.276 2478.1 106.278 2478.1 109.81V160.005H2466.84V115.107C2466.84 112.988 2466.66 111.002 2466.31 109.148C2465.96 107.293 2465.29 105.704 2464.32 104.38C2463.35 102.967 2461.98 101.863 2460.22 101.069C2458.54 100.274 2456.33 99.8766 2453.59 99.8766C2448.03 99.8766 2443.66 101.466 2440.48 104.645C2437.3 107.823 2435.71 112.061 2435.71 117.359V160.005H2424.46V115.107C2424.46 112.9 2424.24 110.869 2423.79 109.015C2423.44 107.161 2422.78 105.572 2421.81 104.247C2420.84 102.834 2419.51 101.775 2417.83 101.069C2416.25 100.274 2414.17 99.8766 2411.61 99.8766C2408.34 99.8766 2405.52 100.539 2403.13 101.863C2400.84 103.188 2398.94 104.777 2397.44 106.631C2396.03 108.485 2394.97 110.428 2394.26 112.459C2393.64 114.401 2393.33 116.035 2393.33 117.359V160.005H2382.08V91.5328Z" fill="#434343"/>
<path d="M1667.84 303.705H1691.01C1694.77 303.705 1698.41 303.098 1701.94 301.884C1705.47 300.67 1708.62 298.683 1711.38 295.924C1714.14 293.055 1716.34 289.357 1718 284.832C1719.66 280.307 1720.48 274.789 1720.48 268.277C1720.48 262.317 1719.88 256.964 1718.66 252.218C1717.56 247.362 1715.68 243.223 1713.03 239.802C1710.38 236.38 1706.85 233.787 1702.44 232.021C1698.13 230.145 1692.78 229.206 1686.38 229.206H1667.84V303.705ZM1641.85 207.353H1692.84C1700.45 207.353 1707.51 208.567 1714.03 210.996C1720.65 213.424 1726.33 217.066 1731.08 221.922C1735.93 226.778 1739.69 232.849 1742.34 240.133C1745.1 247.417 1746.48 255.971 1746.48 265.794C1746.48 274.402 1745.37 282.349 1743.16 289.633C1740.96 296.917 1737.59 303.208 1733.07 308.506C1728.65 313.804 1723.08 317.998 1716.34 321.088C1709.72 324.068 1701.89 325.558 1692.84 325.558H1641.85V207.353Z" fill="#434343"/>
<path d="M1764.56 207.353H1852.96V229.206H1790.55V254.536H1847.83V274.733H1790.55V303.705H1854.28V325.558H1764.56V207.353Z" fill="#434343"/>
<path d="M1889.62 286.322C1889.62 290.295 1890.34 293.662 1891.77 296.421C1893.21 299.18 1895.08 301.443 1897.4 303.208C1899.83 304.864 1902.64 306.133 1905.84 307.016C1909.04 307.789 1912.36 308.175 1915.78 308.175C1918.09 308.175 1920.58 308.009 1923.23 307.678C1925.88 307.237 1928.36 306.464 1930.68 305.361C1932.99 304.257 1934.93 302.767 1936.47 300.891C1938.02 298.904 1938.79 296.421 1938.79 293.441C1938.79 290.24 1937.74 287.646 1935.64 285.66C1933.66 283.673 1931.01 282.018 1927.7 280.693C1924.39 279.369 1920.63 278.21 1916.44 277.217C1912.25 276.223 1908 275.12 1903.69 273.906C1899.28 272.802 1894.97 271.477 1890.78 269.932C1886.58 268.277 1882.83 266.18 1879.52 263.641C1876.21 261.103 1873.51 257.957 1871.41 254.205C1869.42 250.342 1868.43 245.706 1868.43 240.298C1868.43 234.228 1869.7 228.986 1872.24 224.571C1874.89 220.046 1878.31 216.293 1882.5 213.313C1886.7 210.333 1891.44 208.126 1896.74 206.691C1902.04 205.256 1907.33 204.539 1912.63 204.539C1918.81 204.539 1924.72 205.256 1930.35 206.691C1936.09 208.016 1941.16 210.223 1945.58 213.313C1949.99 216.404 1953.47 220.377 1956.01 225.233C1958.66 229.979 1959.98 235.773 1959.98 242.616H1934.82C1934.6 239.084 1933.82 236.16 1932.5 233.842C1931.28 231.524 1929.63 229.703 1927.53 228.379C1925.43 227.054 1923.01 226.116 1920.25 225.564C1917.6 225.012 1914.67 224.736 1911.47 224.736C1909.38 224.736 1907.28 224.957 1905.18 225.399C1903.08 225.84 1901.15 226.613 1899.39 227.716C1897.73 228.82 1896.35 230.2 1895.25 231.855C1894.15 233.511 1893.59 235.608 1893.59 238.146C1893.59 240.464 1894.03 242.34 1894.92 243.775C1895.8 245.21 1897.51 246.534 1900.05 247.748C1902.7 248.962 1906.29 250.176 1910.81 251.39C1915.45 252.604 1921.46 254.15 1928.86 256.026C1931.06 256.467 1934.1 257.295 1937.96 258.509C1941.93 259.613 1945.85 261.434 1949.72 263.972C1953.58 266.511 1956.89 269.932 1959.65 274.237C1962.52 278.431 1963.95 283.839 1963.95 290.461C1963.95 295.869 1962.9 300.891 1960.81 305.526C1958.71 310.162 1955.57 314.19 1951.37 317.612C1947.29 320.923 1942.16 323.516 1935.97 325.392C1929.9 327.269 1922.84 328.207 1914.78 328.207C1908.27 328.207 1901.93 327.379 1895.75 325.724C1889.68 324.178 1884.27 321.695 1879.52 318.274C1874.89 314.852 1871.19 310.493 1868.43 305.195C1865.67 299.897 1864.35 293.606 1864.46 286.322H1889.62Z" fill="#434343"/>
<path d="M1979.42 207.353H2005.41V325.558H1979.42V207.353Z" fill="#434343"/>
<path d="M2113.67 312.148C2109.03 318.108 2103.9 322.302 2098.27 324.73C2092.64 327.048 2086.96 328.207 2081.22 328.207C2072.17 328.207 2064 326.662 2056.72 323.571C2049.54 320.371 2043.47 316.011 2038.51 310.493C2033.54 304.974 2029.73 298.518 2027.08 291.123C2024.44 283.618 2023.11 275.561 2023.11 266.952C2023.11 258.123 2024.44 249.956 2027.08 242.451C2029.73 234.835 2033.54 228.213 2038.51 222.584C2043.47 216.955 2049.54 212.541 2056.72 209.34C2064 206.139 2072.17 204.539 2081.22 204.539C2087.29 204.539 2093.14 205.477 2098.77 207.353C2104.51 209.119 2109.64 211.768 2114.16 215.3C2118.8 218.832 2122.61 223.191 2125.59 228.379C2128.57 233.566 2130.39 239.526 2131.05 246.258H2106.22C2104.67 239.636 2101.69 234.67 2097.28 231.359C2092.86 228.048 2087.51 226.392 2081.22 226.392C2075.37 226.392 2070.4 227.551 2066.32 229.869C2062.24 232.076 2058.93 235.111 2056.39 238.974C2053.85 242.727 2051.97 247.031 2050.76 251.887C2049.65 256.743 2049.1 261.765 2049.1 266.952C2049.1 271.919 2049.65 276.775 2050.76 281.521C2051.97 286.156 2053.85 290.35 2056.39 294.103C2058.93 297.856 2062.24 300.891 2066.32 303.208C2070.4 305.416 2075.37 306.519 2081.22 306.519C2089.83 306.519 2096.45 304.367 2101.09 300.063C2105.83 295.648 2108.59 289.302 2109.36 281.024H2083.21V261.655H2132.87V325.558H2116.32L2113.67 312.148Z" fill="#434343"/>
<path d="M2153.86 207.353H2179.69L2229.02 286.653H2229.35V207.353H2253.69V325.558H2227.7L2178.53 246.424H2178.2V325.558H2153.86V207.353Z" fill="#434343"/>
<path d="M2348.64 303.705H2371.82C2375.57 303.705 2379.21 303.098 2382.74 301.884C2386.28 300.67 2389.42 298.683 2392.18 295.924C2394.94 293.055 2397.15 289.357 2398.8 284.832C2400.46 280.307 2401.29 274.789 2401.29 268.277C2401.29 262.317 2400.68 256.964 2399.47 252.218C2398.36 247.362 2396.49 243.223 2393.84 239.802C2391.19 236.38 2387.66 233.787 2383.24 232.021C2378.94 230.145 2373.58 229.206 2367.18 229.206H2348.64V303.705ZM2322.65 207.353H2373.64C2381.25 207.353 2388.32 208.567 2394.83 210.996C2401.45 213.424 2407.14 217.066 2411.88 221.922C2416.74 226.778 2420.49 232.849 2423.14 240.133C2425.9 247.417 2427.28 255.971 2427.28 265.794C2427.28 274.402 2426.17 282.349 2423.97 289.633C2421.76 296.917 2418.39 303.208 2413.87 308.506C2409.45 313.804 2403.88 317.998 2397.15 321.088C2390.53 324.068 2382.69 325.558 2373.64 325.558H2322.65V207.353Z" fill="#434343"/>
<path d="M2445.36 207.353H2533.76V229.206H2471.35V254.536H2528.63V274.733H2471.35V303.705H2535.09V325.558H2445.36V207.353Z" fill="#434343"/>
<path d="M1667.84 428.532H1688.03C1691.01 428.532 1693.88 428.311 1696.64 427.87C1699.4 427.428 1701.83 426.6 1703.93 425.386C1706.03 424.062 1707.68 422.241 1708.89 419.923C1710.22 417.605 1710.88 414.57 1710.88 410.818C1710.88 407.065 1710.22 404.03 1708.89 401.712C1707.68 399.395 1706.03 397.629 1703.93 396.415C1701.83 395.09 1699.4 394.207 1696.64 393.766C1693.88 393.324 1691.01 393.104 1688.03 393.104H1667.84V428.532ZM1641.85 372.906H1695.15C1702.55 372.906 1708.84 374.01 1714.03 376.217C1719.21 378.314 1723.41 381.129 1726.61 384.66C1729.92 388.192 1732.29 392.221 1733.73 396.746C1735.27 401.271 1736.05 405.961 1736.05 410.818C1736.05 415.564 1735.27 420.254 1733.73 424.89C1732.29 429.415 1729.92 433.443 1726.61 436.975C1723.41 440.507 1719.21 443.376 1714.03 445.584C1708.84 447.681 1702.55 448.729 1695.15 448.729H1667.84V491.111H1641.85V372.906Z" fill="#434343"/>
<path d="M1778.26 426.38H1806.73C1812.69 426.38 1817.16 425.055 1820.14 422.406C1823.12 419.758 1824.61 415.453 1824.61 409.493C1824.61 403.754 1823.12 399.615 1820.14 397.077C1817.16 394.428 1812.69 393.104 1806.73 393.104H1778.26V426.38ZM1752.27 372.906H1816.01C1821.3 372.906 1826.05 373.789 1830.24 375.555C1834.55 377.21 1838.19 379.528 1841.17 382.508C1844.26 385.488 1846.58 388.965 1848.12 392.938C1849.78 396.801 1850.61 400.995 1850.61 405.52C1850.61 412.473 1849.12 418.488 1846.14 423.565C1843.27 428.642 1838.52 432.505 1831.9 435.154V435.485C1835.1 436.368 1837.75 437.748 1839.85 439.624C1841.94 441.39 1843.65 443.542 1844.98 446.08C1846.3 448.509 1847.24 451.213 1847.79 454.192C1848.45 457.172 1848.9 460.152 1849.12 463.132C1849.23 465.009 1849.34 467.216 1849.45 469.754C1849.56 472.293 1849.72 474.887 1849.94 477.535C1850.28 480.184 1850.72 482.723 1851.27 485.151C1851.93 487.469 1852.87 489.455 1854.08 491.111H1828.09C1826.66 487.358 1825.77 482.888 1825.44 477.701C1825.11 472.514 1824.61 467.547 1823.95 462.801C1823.07 456.621 1821.19 452.095 1818.32 449.226C1815.45 446.356 1810.76 444.922 1804.25 444.922H1778.26V491.111H1752.27V372.906Z" fill="#434343"/>
<path d="M1892.6 432.505C1892.6 437.472 1893.16 442.328 1894.26 447.074C1895.47 451.709 1897.35 455.903 1899.89 459.656C1902.43 463.408 1905.74 466.443 1909.82 468.761C1913.9 470.968 1918.87 472.072 1924.72 472.072C1930.57 472.072 1935.54 470.968 1939.62 468.761C1943.7 466.443 1947.02 463.408 1949.55 459.656C1952.09 455.903 1953.91 451.709 1955.02 447.074C1956.23 442.328 1956.84 437.472 1956.84 432.505C1956.84 427.318 1956.23 422.296 1955.02 417.44C1953.91 412.584 1952.09 408.279 1949.55 404.527C1947.02 400.664 1943.7 397.629 1939.62 395.421C1935.54 393.104 1930.57 391.945 1924.72 391.945C1918.87 391.945 1913.9 393.104 1909.82 395.421C1905.74 397.629 1902.43 400.664 1899.89 404.527C1897.35 408.279 1895.47 412.584 1894.26 417.44C1893.16 422.296 1892.6 427.318 1892.6 432.505ZM1866.61 432.505C1866.61 423.676 1867.94 415.508 1870.59 408.003C1873.23 400.388 1877.04 393.766 1882.01 388.137C1886.97 382.508 1893.05 378.093 1900.22 374.893C1907.5 371.692 1915.67 370.092 1924.72 370.092C1933.88 370.092 1942.05 371.692 1949.22 374.893C1956.4 378.093 1962.47 382.508 1967.43 388.137C1972.4 393.766 1976.21 400.388 1978.86 408.003C1981.51 415.508 1982.83 423.676 1982.83 432.505C1982.83 441.114 1981.51 449.171 1978.86 456.676C1976.21 464.07 1972.4 470.527 1967.43 476.045C1962.47 481.564 1956.4 485.923 1949.22 489.124C1942.05 492.214 1933.88 493.76 1924.72 493.76C1915.67 493.76 1907.5 492.214 1900.22 489.124C1893.05 485.923 1886.97 481.564 1882.01 476.045C1877.04 470.527 1873.23 464.07 1870.59 456.676C1867.94 449.171 1866.61 441.114 1866.61 432.505Z" fill="#434343"/>
<path d="M2026.59 469.258H2049.77C2053.52 469.258 2057.16 468.651 2060.69 467.437C2064.22 466.223 2067.37 464.236 2070.13 461.477C2072.89 458.607 2075.1 454.91 2076.75 450.385C2078.41 445.86 2079.23 440.341 2079.23 433.83C2079.23 427.87 2078.63 422.517 2077.41 417.771C2076.31 412.915 2074.43 408.776 2071.78 405.354C2069.14 401.933 2065.6 399.339 2061.19 397.573C2056.89 395.697 2051.53 394.759 2045.13 394.759H2026.59V469.258ZM2000.6 372.906H2051.59C2059.2 372.906 2066.27 374.12 2072.78 376.548C2079.4 378.976 2085.08 382.619 2089.83 387.475C2094.69 392.331 2098.44 398.401 2101.09 405.686C2103.85 412.97 2105.23 421.523 2105.23 431.346C2105.23 439.955 2104.12 447.901 2101.92 455.186C2099.71 462.47 2096.34 468.761 2091.82 474.059C2087.4 479.356 2081.83 483.55 2075.1 486.641C2068.47 489.621 2060.64 491.111 2051.59 491.111H2000.6V372.906Z" fill="#434343"/>
<path d="M2223.63 446.412C2223.63 462.415 2219.16 474.335 2210.22 482.171C2201.28 489.897 2188.92 493.76 2173.14 493.76C2157.13 493.76 2144.72 489.897 2135.89 482.171C2127.17 474.445 2122.81 462.525 2122.81 446.412V372.906H2148.8V446.412C2148.8 449.612 2149.08 452.758 2149.63 455.848C2150.18 458.938 2151.34 461.698 2153.11 464.126C2154.87 466.443 2157.3 468.375 2160.39 469.92C2163.59 471.355 2167.84 472.072 2173.14 472.072C2182.41 472.072 2188.81 470.03 2192.34 465.947C2195.87 461.753 2197.64 455.241 2197.64 446.412V372.906H2223.63V446.412Z" fill="#434343"/>
<path d="M2272.17 394.759H2236.75V372.906H2333.59V394.759H2298.17V491.111H2272.17V394.759Z" fill="#434343"/>
<path d="M2368.08 432.505C2368.08 437.472 2368.63 442.328 2369.74 447.074C2370.95 451.709 2372.83 455.903 2375.37 459.656C2377.91 463.408 2381.22 466.443 2385.3 468.761C2389.38 470.968 2394.35 472.072 2400.2 472.072C2406.05 472.072 2411.02 470.968 2415.1 468.761C2419.18 466.443 2422.49 463.408 2425.03 459.656C2427.57 455.903 2429.39 451.709 2430.5 447.074C2431.71 442.328 2432.32 437.472 2432.32 432.505C2432.32 427.318 2431.71 422.296 2430.5 417.44C2429.39 412.584 2427.57 408.279 2425.03 404.527C2422.49 400.664 2419.18 397.629 2415.1 395.421C2411.02 393.104 2406.05 391.945 2400.2 391.945C2394.35 391.945 2389.38 393.104 2385.3 395.421C2381.22 397.629 2377.91 400.664 2375.37 404.527C2372.83 408.279 2370.95 412.584 2369.74 417.44C2368.63 422.296 2368.08 427.318 2368.08 432.505ZM2342.09 432.505C2342.09 423.676 2343.42 415.508 2346.06 408.003C2348.71 400.388 2352.52 393.766 2357.49 388.137C2362.45 382.508 2368.52 378.093 2375.7 374.893C2382.98 371.692 2391.15 370.092 2400.2 370.092C2409.36 370.092 2417.53 371.692 2424.7 374.893C2431.88 378.093 2437.95 382.508 2442.91 388.137C2447.88 393.766 2451.69 400.388 2454.34 408.003C2456.98 415.508 2458.31 423.676 2458.31 432.505C2458.31 441.114 2456.98 449.171 2454.34 456.676C2451.69 464.07 2447.88 470.527 2442.91 476.045C2437.95 481.564 2431.88 485.923 2424.7 489.124C2417.53 492.214 2409.36 493.76 2400.2 493.76C2391.15 493.76 2382.98 492.214 2375.7 489.124C2368.52 485.923 2362.45 481.564 2357.49 476.045C2352.52 470.527 2348.71 464.07 2346.06 456.676C2343.42 449.171 2342.09 441.114 2342.09 432.505Z" fill="#434343"/>
</svg>
