<?xml version="1.0" encoding="UTF-8"?>
<svg id="Camada_1" data-name="Camada 1" xmlns="http://www.w3.org/2000/svg" viewBox="0 0 2560 1600">
  <defs>
    <style>
      .cls-1 {
        fill: rgba(67, 67, 67, .8);
        opacity: .53;
      }

      .cls-2 {
        fill: none;
        stroke: #fe4b4a;
        stroke-miterlimit: 10;
        stroke-width: .5px;
      }
    </style>
  </defs>
  <path class="cls-1" d="M1538.27,624.51l-251.59-145.25c-1.07-.66-2.22-1.2-3.42-1.59-.06-.02-.12-.04-.18-.06-.26-.08-.52-.16-.78-.23-.11-.03-.23-.06-.34-.09-.21-.05-.43-.1-.64-.14-.14-.03-.28-.05-.41-.07-.2-.03-.41-.07-.61-.09-.13-.02-.27-.03-.4-.05-.22-.02-.44-.04-.66-.05-.11,0-.22-.01-.34-.02-.25,0-.5-.01-.75-.01-.08,0-.16,0-.24,0-.28,0-.56.02-.84.04-.05,0-.1,0-.15.01-.3.03-.59.06-.89.1-.04,0-.07.01-.11.02-.3.05-.59.1-.89.16-.04,0-.09.02-.13.03-.28.06-.55.13-.83.21-.08.02-.16.05-.24.07-.23.07-.46.14-.69.22-.16.05-.31.11-.46.17-.15.06-.3.11-.45.18-.74.3-1.46.67-2.14,1.08l-251.78,145.37c-10.67,6.16-10.67,21.56,0,27.72l82.85,47.83c38.64-56.58,103.65-93.72,177.33-93.72s138.57,37.07,177.22,93.56l82.57-47.67c10.67-6.16,10.67-21.56,0-27.72Z"/>
  <line class="cls-2" x1="1294.27" y1="-7357.62" x2="1294.27" y2="9025.38"/>
  <line class="cls-2" x1="1262.26" y1="-7357.62" x2="1262.26" y2="9025.38"/>
  <path class="cls-1" d="M1262.13,835.94c-.01-.06-.03-.12-.04-.18-.06-.27-.12-.53-.19-.79-.03-.11-.06-.22-.1-.34-.06-.21-.13-.42-.2-.63-.04-.13-.09-.26-.14-.39-.07-.2-.15-.39-.23-.58-.05-.12-.11-.25-.16-.37-.09-.2-.19-.4-.28-.6-.05-.1-.1-.2-.15-.3-.12-.22-.24-.44-.36-.65-.04-.07-.08-.14-.12-.21-.14-.24-.3-.47-.45-.7-.03-.04-.06-.08-.09-.12-.17-.24-.35-.48-.54-.72-.02-.03-.04-.06-.07-.08-.19-.24-.38-.47-.59-.69-.03-.03-.06-.06-.09-.1-.19-.21-.39-.42-.59-.62-.06-.06-.12-.11-.18-.17-.18-.17-.35-.33-.54-.49-.12-.11-.25-.21-.38-.31-.13-.1-.25-.21-.38-.31-.63-.49-1.3-.93-2-1.32l-251.78-145.37c-10.67-6.16-24,1.54-24.01,13.86v290.51c-.03,1.26.07,2.52.33,3.75.01.06.03.12.04.18.06.26.12.53.19.79.03.11.06.23.1.34.06.21.13.42.2.63.05.13.09.26.14.39.07.19.15.39.23.58.05.13.11.25.16.37.09.2.18.4.28.6.05.1.1.2.15.3.12.22.24.44.36.65.04.07.08.14.12.21.14.24.3.47.45.7.03.04.06.09.09.13.17.24.35.48.53.72.02.03.04.06.07.08.19.23.38.47.59.69.03.03.06.07.09.1.19.21.39.41.59.61.06.06.12.11.18.17.18.17.35.33.54.49.12.11.25.21.38.32.13.1.25.21.38.31.63.49,1.3.93,2,1.32l251.78,145.37c10.67,6.16,24.01-1.54,24.01-13.86v-290.51c.03-1.26-.07-2.52-.33-3.76Z"/>
  <line class="cls-2" x1="-5854.94" y1="4957.71" x2="8333.15" y2="-3233.79"/>
  <line class="cls-2" x1="-5870.94" y1="4929.99" x2="8317.15" y2="-3261.51"/>
  <line class="cls-2" x1="-5854.94" y1="4939.39" x2="8333.16" y2="-3252.11"/>
  <path class="cls-1" d="M1574.34,995.47s.06-.07.09-.1c.2-.23.4-.46.58-.69.02-.03.05-.06.07-.09.19-.24.36-.48.53-.72.03-.04.06-.08.09-.13.16-.23.31-.46.45-.7.04-.07.08-.14.12-.21.13-.21.25-.43.36-.65.05-.1.1-.2.15-.3.1-.2.19-.4.28-.6.06-.12.11-.25.16-.37.08-.19.15-.38.23-.58.05-.13.1-.26.14-.39.07-.21.14-.42.2-.63.03-.11.07-.23.1-.34.07-.26.13-.53.19-.79.01-.06.03-.12.04-.18.26-1.24.36-2.5.33-3.75v-290.51c0-12.32-13.34-20.02-24-13.86l-251.78,145.37c-.7.39-1.37.83-2,1.32-.13.1-.25.2-.38.3-.13.11-.26.21-.38.32-.18.16-.36.32-.54.49-.06.06-.12.11-.18.17-.2.2-.4.41-.59.61-.03.03-.06.07-.09.1-.2.23-.4.46-.58.69-.02.03-.05.06-.07.09-.19.24-.36.47-.53.72-.03.04-.06.08-.09.13-.16.23-.31.46-.45.7-.04.07-.08.14-.12.21-.13.21-.25.43-.36.65-.05.1-.1.2-.15.3-.1.2-.19.4-.28.6-.06.12-.11.25-.16.37-.08.19-.15.38-.23.58-.05.13-.1.26-.14.39-.07.21-.14.42-.2.63-.03.11-.07.23-.1.34-.07.26-.13.53-.19.79-.01.06-.03.12-.04.18-.26,1.24-.36,2.49-.33,3.75v290.51c0,12.32,13.34,20.02,24,13.86l251.78-145.37c.7-.39,1.37-.83,2-1.32.13-.1.25-.2.38-.31.13-.1.26-.21.38-.32.18-.16.36-.32.54-.49.06-.06.12-.11.18-.17.2-.2.4-.4.59-.61Z"/>
  <line class="cls-2" x1="8411.89" y1="4957.71" x2="-5776.21" y2="-3233.79"/>
  <line class="cls-2" x1="8427.89" y1="4929.99" x2="-5760.2" y2="-3261.51"/>
  <line class="cls-2" x1="8411.88" y1="4939.42" x2="-5776.21" y2="-3252.08"/>
  <line class="cls-2" x1="-6911.5" y1="638.35" x2="9471.5" y2="638.35"/>
  <line class="cls-2" x1="-6911.5" y1="606.34" x2="9471.5" y2="606.34"/>
  <line class="cls-2" x1="1278.47" y1="-7357.62" x2="1278.47" y2="9025.38"/>
  <circle class="cls-2" cx="1278.47" cy="820.94" r="214.61"/>
  <circle class="cls-2" cx="1025.71" cy="638.45" r="15.76"/>
  <circle class="cls-2" cx="1278.39" cy="493.18" r="15.76"/>
  <circle class="cls-2" cx="1278.39" cy="622.35" r="15.76"/>
  <circle class="cls-2" cx="1278.39" cy="820.47" r="15.76"/>
</svg>