<svg width="1694" height="703" viewBox="0 0 1694 703" fill="none" xmlns="http://www.w3.org/2000/svg">
<path d="M50 247.397C50 235.007 63.4127 227.264 74.1426 233.459L297.631 362.489C300.674 364.246 302.853 366.751 304.17 369.579C305.973 372.139 307.061 375.289 307.062 378.816V636.879C307.061 649.268 293.649 657.012 282.919 650.817L59.4307 521.786C56.3876 520.029 54.2085 517.524 52.8916 514.696C51.0887 512.136 50 508.986 50 505.459V247.397Z" fill="#434343"/>
<path d="M568.033 233.462C578.763 227.267 592.176 235.01 592.176 247.4V505.463C592.176 508.987 591.089 512.135 589.288 514.694C587.971 517.524 585.792 520.032 582.747 521.79L359.259 650.82C348.529 657.015 335.117 649.271 335.117 636.881V378.82C335.117 375.296 336.202 372.149 338.002 369.59C339.319 366.759 341.5 364.251 344.546 362.493L568.033 233.462Z" fill="#434343"/>
<path d="M321.213 50.0628C324.327 49.7847 327.594 50.4193 330.644 52.18L554.132 181.211C564.862 187.406 564.862 202.893 554.132 209.088L478.436 252.79C447.544 197.805 388.715 160.66 321.22 160.66C253.724 160.66 194.893 197.805 164.001 252.792L88.3049 209.089C77.5755 202.894 77.5754 187.407 88.3049 181.212L311.793 52.181C314.84 50.4222 318.103 49.7872 321.213 50.0628Z" fill="#434343"/>
<path d="M681.092 95.4164H747.54V107.832H721.444V177.5H707.073V107.832H681.092V95.4164ZM783.23 142.551C783.077 140.482 782.617 138.489 781.85 136.573C781.161 134.657 780.164 133.009 778.861 131.63C777.635 130.174 776.102 129.024 774.263 128.181C772.5 127.261 770.507 126.801 768.285 126.801C765.985 126.801 763.878 127.223 761.962 128.066C760.122 128.832 758.513 129.944 757.133 131.4C755.83 132.779 754.757 134.427 753.914 136.343C753.148 138.259 752.726 140.329 752.65 142.551H783.23ZM752.65 151.173C752.65 153.473 752.956 155.695 753.569 157.841C754.259 159.987 755.256 161.865 756.559 163.475C757.861 165.084 759.509 166.387 761.502 167.383C763.495 168.303 765.871 168.763 768.63 168.763C772.462 168.763 775.527 167.958 777.827 166.349C780.203 164.662 781.965 162.172 783.115 158.876H795.531C794.841 162.095 793.653 164.969 791.967 167.498C790.281 170.027 788.25 172.173 785.874 173.936C783.498 175.622 780.816 176.887 777.827 177.73C774.914 178.65 771.849 179.109 768.63 179.109C763.954 179.109 759.816 178.343 756.214 176.81C752.611 175.277 749.546 173.131 747.017 170.372C744.564 167.613 742.686 164.318 741.383 160.485C740.157 156.653 739.544 152.438 739.544 147.84C739.544 143.624 740.195 139.639 741.498 135.883C742.878 132.051 744.794 128.717 747.247 125.882C749.776 122.969 752.803 120.67 756.329 118.984C759.854 117.298 763.84 116.455 768.285 116.455C772.96 116.455 777.137 117.451 780.816 119.444C784.571 121.36 787.675 123.927 790.128 127.146C792.58 130.365 794.343 134.082 795.416 138.298C796.566 142.436 796.872 146.728 796.336 151.173H752.65ZM846.421 137.953C845.884 134.274 844.39 131.515 841.937 129.675C839.562 127.759 836.534 126.801 832.855 126.801C831.169 126.801 829.368 127.108 827.452 127.721C825.536 128.258 823.773 129.33 822.164 130.94C820.554 132.473 819.213 134.657 818.14 137.493C817.067 140.252 816.531 143.892 816.531 148.414C816.531 150.867 816.799 153.319 817.335 155.772C817.948 158.225 818.868 160.409 820.094 162.325C821.397 164.241 823.045 165.812 825.038 167.038C827.031 168.188 829.445 168.763 832.281 168.763C836.113 168.763 839.255 167.575 841.707 165.199C844.237 162.823 845.808 159.489 846.421 155.197H859.527C858.3 162.938 855.35 168.878 850.675 173.016C846.076 177.078 839.945 179.109 832.281 179.109C827.605 179.109 823.467 178.343 819.865 176.81C816.339 175.201 813.35 173.055 810.897 170.372C808.445 167.613 806.567 164.356 805.264 160.6C804.038 156.845 803.425 152.783 803.425 148.414C803.425 143.969 804.038 139.792 805.264 135.883C806.49 131.975 808.33 128.602 810.782 125.767C813.235 122.854 816.262 120.593 819.865 118.984C823.543 117.298 827.835 116.455 832.74 116.455C836.189 116.455 839.447 116.914 842.512 117.834C845.655 118.677 848.414 119.98 850.79 121.743C853.242 123.506 855.235 125.728 856.768 128.411C858.3 131.093 859.22 134.274 859.527 137.953H846.421ZM870.18 118.064H882.596V126.801L882.826 127.031C884.818 123.736 887.424 121.168 890.643 119.329C893.862 117.413 897.426 116.455 901.335 116.455C907.849 116.455 912.984 118.141 916.74 121.513C920.495 124.885 922.373 129.944 922.373 136.688V177.5H909.267V140.137C909.114 135.462 908.118 132.09 906.278 130.02C904.439 127.874 901.565 126.801 897.656 126.801C895.433 126.801 893.441 127.223 891.678 128.066C889.915 128.832 888.421 129.944 887.194 131.4C885.968 132.779 885.01 134.427 884.32 136.343C883.63 138.259 883.285 140.29 883.285 142.436V177.5H870.18V118.064ZM963.44 179.109C958.688 179.109 954.434 178.343 950.679 176.81C947 175.201 943.858 173.016 941.252 170.257C938.723 167.498 936.768 164.203 935.389 160.371C934.086 156.538 933.435 152.323 933.435 147.725C933.435 143.203 934.086 139.026 935.389 135.194C936.768 131.362 938.723 128.066 941.252 125.307C943.858 122.548 947 120.402 950.679 118.869C954.434 117.259 958.688 116.455 963.44 116.455C968.192 116.455 972.407 117.259 976.086 118.869C979.841 120.402 982.984 122.548 985.513 125.307C988.119 128.066 990.073 131.362 991.376 135.194C992.755 139.026 993.445 143.203 993.445 147.725C993.445 152.323 992.755 156.538 991.376 160.371C990.073 164.203 988.119 167.498 985.513 170.257C982.984 173.016 979.841 175.201 976.086 176.81C972.407 178.343 968.192 179.109 963.44 179.109ZM963.44 168.763C966.352 168.763 968.881 168.15 971.027 166.923C973.173 165.697 974.936 164.088 976.316 162.095C977.695 160.102 978.692 157.88 979.305 155.427C979.995 152.898 980.339 150.33 980.339 147.725C980.339 145.195 979.995 142.666 979.305 140.137C978.692 137.608 977.695 135.385 976.316 133.469C974.936 131.476 973.173 129.867 971.027 128.641C968.881 127.414 966.352 126.801 963.44 126.801C960.527 126.801 957.998 127.414 955.852 128.641C953.706 129.867 951.944 131.476 950.564 133.469C949.184 135.385 948.15 137.608 947.46 140.137C946.847 142.666 946.54 145.195 946.54 147.725C946.54 150.33 946.847 152.898 947.46 155.427C948.15 157.88 949.184 160.102 950.564 162.095C951.944 164.088 953.706 165.697 955.852 166.923C957.998 168.15 960.527 168.763 963.44 168.763ZM1004.69 95.4164H1017.79V177.5H1004.69V95.4164ZM1059.32 179.109C1054.57 179.109 1050.31 178.343 1046.56 176.81C1042.88 175.201 1039.74 173.016 1037.13 170.257C1034.6 167.498 1032.65 164.203 1031.27 160.371C1029.96 156.538 1029.31 152.323 1029.31 147.725C1029.31 143.203 1029.96 139.026 1031.27 135.194C1032.65 131.362 1034.6 128.066 1037.13 125.307C1039.74 122.548 1042.88 120.402 1046.56 118.869C1050.31 117.259 1054.57 116.455 1059.32 116.455C1064.07 116.455 1068.28 117.259 1071.96 118.869C1075.72 120.402 1078.86 122.548 1081.39 125.307C1084 128.066 1085.95 131.362 1087.25 135.194C1088.63 139.026 1089.32 143.203 1089.32 147.725C1089.32 152.323 1088.63 156.538 1087.25 160.371C1085.95 164.203 1084 167.498 1081.39 170.257C1078.86 173.016 1075.72 175.201 1071.96 176.81C1068.28 178.343 1064.07 179.109 1059.32 179.109ZM1059.32 168.763C1062.23 168.763 1064.76 168.15 1066.9 166.923C1069.05 165.697 1070.81 164.088 1072.19 162.095C1073.57 160.102 1074.57 157.88 1075.18 155.427C1075.87 152.898 1076.22 150.33 1076.22 147.725C1076.22 145.195 1075.87 142.666 1075.18 140.137C1074.57 137.608 1073.57 135.385 1072.19 133.469C1070.81 131.476 1069.05 129.867 1066.9 128.641C1064.76 127.414 1062.23 126.801 1059.32 126.801C1056.4 126.801 1053.88 127.414 1051.73 128.641C1049.58 129.867 1047.82 131.476 1046.44 133.469C1045.06 135.385 1044.03 137.608 1043.34 140.137C1042.72 142.666 1042.42 145.195 1042.42 147.725C1042.42 150.33 1042.72 152.898 1043.34 155.427C1044.03 157.88 1045.06 160.102 1046.44 162.095C1047.82 164.088 1049.58 165.697 1051.73 166.923C1053.88 168.15 1056.4 168.763 1059.32 168.763ZM1155.17 174.396C1155.17 183.363 1152.64 190.031 1147.58 194.4C1142.6 198.845 1135.4 201.067 1125.97 201.067C1122.98 201.067 1119.95 200.761 1116.89 200.148C1113.9 199.535 1111.14 198.5 1108.61 197.044C1106.16 195.588 1104.09 193.671 1102.4 191.296C1100.72 188.92 1099.72 186.007 1099.41 182.558H1112.52C1112.9 184.398 1113.55 185.892 1114.47 187.042C1115.39 188.192 1116.47 189.073 1117.69 189.686C1119 190.376 1120.41 190.797 1121.95 190.951C1123.48 191.181 1125.09 191.296 1126.77 191.296C1132.06 191.296 1135.93 189.993 1138.39 187.387C1140.84 184.781 1142.06 181.026 1142.06 176.12V167.038H1141.83C1140 170.334 1137.47 172.901 1134.25 174.741C1131.1 176.58 1127.69 177.5 1124.02 177.5C1119.26 177.5 1115.2 176.695 1111.83 175.086C1108.53 173.4 1105.77 171.139 1103.55 168.303C1101.41 165.391 1099.83 162.057 1098.84 158.301C1097.84 154.546 1097.34 150.522 1097.34 146.23C1097.34 142.245 1097.96 138.451 1099.18 134.849C1100.41 131.247 1102.17 128.104 1104.47 125.422C1106.77 122.663 1109.57 120.478 1112.86 118.869C1116.24 117.259 1120.03 116.455 1124.25 116.455C1128 116.455 1131.45 117.259 1134.59 118.869C1137.73 120.402 1140.15 122.854 1141.83 126.226H1142.06V118.064H1155.17V174.396ZM1126.08 167.153C1129 167.153 1131.45 166.579 1133.44 165.429C1135.51 164.203 1137.16 162.631 1138.39 160.715C1139.69 158.723 1140.61 156.5 1141.14 154.048C1141.76 151.518 1142.06 148.989 1142.06 146.46C1142.06 143.931 1141.76 141.478 1141.14 139.102C1140.53 136.726 1139.57 134.619 1138.27 132.779C1137.04 130.94 1135.4 129.484 1133.33 128.411C1131.33 127.338 1128.92 126.801 1126.08 126.801C1123.17 126.801 1120.72 127.414 1118.73 128.641C1116.73 129.867 1115.12 131.476 1113.9 133.469C1112.67 135.385 1111.79 137.608 1111.25 140.137C1110.72 142.59 1110.45 145.042 1110.45 147.495C1110.45 149.947 1110.76 152.361 1111.37 154.737C1111.98 157.037 1112.9 159.106 1114.13 160.945C1115.43 162.785 1117.04 164.279 1118.96 165.429C1120.95 166.579 1123.33 167.153 1126.08 167.153ZM1168.71 95.4164H1181.82V107.832H1168.71V95.4164ZM1168.71 118.064H1181.82V177.5H1168.71V118.064ZM1245.87 164.279C1245.87 165.889 1246.07 167.038 1246.45 167.728C1246.91 168.418 1247.75 168.763 1248.98 168.763C1249.36 168.763 1249.82 168.763 1250.36 168.763C1250.89 168.763 1251.51 168.686 1252.2 168.533V177.615C1251.74 177.768 1251.12 177.922 1250.36 178.075C1249.67 178.305 1248.94 178.496 1248.17 178.65C1247.41 178.803 1246.64 178.918 1245.87 178.995C1245.11 179.071 1244.46 179.109 1243.92 179.109C1241.24 179.109 1239.01 178.573 1237.25 177.5C1235.49 176.427 1234.34 174.549 1233.8 171.867C1231.2 174.396 1227.98 176.235 1224.15 177.385C1220.39 178.535 1216.75 179.109 1213.22 179.109C1210.54 179.109 1207.97 178.726 1205.52 177.96C1203.07 177.27 1200.89 176.235 1198.97 174.856C1197.13 173.4 1195.64 171.599 1194.49 169.453C1193.41 167.23 1192.88 164.662 1192.88 161.75C1192.88 158.071 1193.53 155.082 1194.83 152.783C1196.21 150.484 1197.97 148.683 1200.12 147.38C1202.34 146.077 1204.79 145.157 1207.48 144.621C1210.24 144.007 1212.99 143.548 1215.75 143.241C1218.13 142.781 1220.39 142.475 1222.54 142.321C1224.68 142.091 1226.56 141.746 1228.17 141.287C1229.86 140.827 1231.16 140.137 1232.08 139.217C1233.08 138.221 1233.57 136.765 1233.57 134.849C1233.57 133.163 1233.15 131.783 1232.31 130.71C1231.54 129.637 1230.55 128.832 1229.32 128.296C1228.17 127.683 1226.87 127.299 1225.41 127.146C1223.95 126.916 1222.58 126.801 1221.27 126.801C1217.59 126.801 1214.57 127.568 1212.19 129.101C1209.81 130.633 1208.47 133.009 1208.17 136.228H1195.06C1195.29 132.396 1196.21 129.216 1197.82 126.686C1199.43 124.157 1201.46 122.126 1203.91 120.593C1206.44 119.06 1209.28 117.987 1212.42 117.374C1215.56 116.761 1218.78 116.455 1222.08 116.455C1224.99 116.455 1227.86 116.761 1230.7 117.374C1233.54 117.987 1236.06 118.984 1238.29 120.363C1240.59 121.743 1242.43 123.544 1243.81 125.767C1245.18 127.913 1245.87 130.557 1245.87 133.699V164.279ZM1232.77 147.725C1230.78 149.027 1228.32 149.832 1225.41 150.139C1222.5 150.369 1219.59 150.752 1216.67 151.288C1215.29 151.518 1213.95 151.863 1212.65 152.323C1211.35 152.706 1210.2 153.281 1209.2 154.048C1208.2 154.737 1207.4 155.695 1206.79 156.922C1206.25 158.071 1205.98 159.489 1205.98 161.175C1205.98 162.631 1206.4 163.858 1207.25 164.854C1208.09 165.85 1209.09 166.655 1210.24 167.268C1211.46 167.805 1212.77 168.188 1214.14 168.418C1215.6 168.648 1216.9 168.763 1218.05 168.763C1219.51 168.763 1221.08 168.571 1222.77 168.188C1224.45 167.805 1226.02 167.153 1227.48 166.234C1229.01 165.314 1230.28 164.164 1231.27 162.785C1232.27 161.329 1232.77 159.566 1232.77 157.496V147.725ZM1332.78 142.551C1332.63 140.482 1332.17 138.489 1331.41 136.573C1330.72 134.657 1329.72 133.009 1328.42 131.63C1327.19 130.174 1325.66 129.024 1323.82 128.181C1322.05 127.261 1320.06 126.801 1317.84 126.801C1315.54 126.801 1313.43 127.223 1311.52 128.066C1309.68 128.832 1308.07 129.944 1306.69 131.4C1305.39 132.779 1304.31 134.427 1303.47 136.343C1302.7 138.259 1302.28 140.329 1302.2 142.551H1332.78ZM1302.2 151.173C1302.2 153.473 1302.51 155.695 1303.12 157.841C1303.81 159.987 1304.81 161.865 1306.11 163.475C1307.42 165.084 1309.06 166.387 1311.06 167.383C1313.05 168.303 1315.43 168.763 1318.18 168.763C1322.02 168.763 1325.08 167.958 1327.38 166.349C1329.76 164.662 1331.52 162.172 1332.67 158.876H1345.09C1344.4 162.095 1343.21 164.969 1341.52 167.498C1339.84 170.027 1337.8 172.173 1335.43 173.936C1333.05 175.622 1330.37 176.887 1327.38 177.73C1324.47 178.65 1321.4 179.109 1318.18 179.109C1313.51 179.109 1309.37 178.343 1305.77 176.81C1302.17 175.277 1299.1 173.131 1296.57 170.372C1294.12 167.613 1292.24 164.318 1290.94 160.485C1289.71 156.653 1289.1 152.438 1289.1 147.84C1289.1 143.624 1289.75 139.639 1291.05 135.883C1292.43 132.051 1294.35 128.717 1296.8 125.882C1299.33 122.969 1302.36 120.67 1305.88 118.984C1309.41 117.298 1313.39 116.455 1317.84 116.455C1322.51 116.455 1326.69 117.451 1330.37 119.444C1334.13 121.36 1337.23 123.927 1339.68 127.146C1342.13 130.365 1343.9 134.082 1344.97 138.298C1346.12 142.436 1346.43 146.728 1345.89 151.173H1302.2ZM1355.85 118.064H1368.27V126.341H1368.61C1369.61 124.885 1370.68 123.544 1371.83 122.318C1372.98 121.091 1374.25 120.057 1375.63 119.214C1377.08 118.371 1378.73 117.719 1380.57 117.259C1382.41 116.723 1384.52 116.455 1386.89 116.455C1390.5 116.455 1393.83 117.259 1396.9 118.869C1400.04 120.478 1402.26 122.969 1403.56 126.341C1405.79 123.276 1408.35 120.862 1411.27 119.099C1414.18 117.336 1417.82 116.455 1422.19 116.455C1428.47 116.455 1433.34 117.987 1436.79 121.053C1440.31 124.119 1442.08 129.254 1442.08 136.458V177.5H1428.97V142.781C1428.97 140.405 1428.89 138.259 1428.74 136.343C1428.59 134.351 1428.13 132.664 1427.36 131.285C1426.67 129.829 1425.6 128.717 1424.14 127.951C1422.69 127.185 1420.69 126.801 1418.16 126.801C1413.72 126.801 1410.5 128.181 1408.51 130.94C1406.51 133.699 1405.52 137.608 1405.52 142.666V177.5H1392.41V139.332C1392.41 135.194 1391.65 132.09 1390.11 130.02C1388.66 127.874 1385.94 126.801 1381.95 126.801C1380.26 126.801 1378.62 127.146 1377.01 127.836C1375.47 128.526 1374.09 129.522 1372.87 130.825C1371.72 132.128 1370.76 133.737 1369.99 135.653C1369.3 137.57 1368.96 139.754 1368.96 142.206V177.5H1355.85V118.064ZM695.911 240.637H757.21C768.531 240.637 778.333 242.57 786.617 246.435C794.9 250.301 801.665 255.617 806.912 262.381C812.158 269.008 816.024 276.809 818.509 285.783C821.132 294.757 822.443 304.352 822.443 314.568C822.443 324.785 821.132 334.38 818.509 343.354C816.024 352.328 812.158 360.198 806.912 366.963C801.665 373.589 794.9 378.836 786.617 382.701C778.333 386.567 768.531 388.5 757.21 388.5H695.911V240.637ZM721.797 367.377H747.269C757.348 367.377 765.562 366.065 771.913 363.442C778.402 360.681 783.441 356.953 787.031 352.259C790.759 347.427 793.244 341.835 794.486 335.485C795.867 328.996 796.557 322.024 796.557 314.568C796.557 307.113 795.867 300.21 794.486 293.859C793.244 287.37 790.759 281.779 787.031 277.085C783.441 272.253 778.402 268.525 771.913 265.902C765.562 263.141 757.348 261.76 747.269 261.76H721.797V367.377ZM915.568 325.544C915.292 321.817 914.464 318.227 913.083 314.776C911.841 311.324 910.046 308.356 907.699 305.871C905.49 303.247 902.729 301.177 899.415 299.658C896.24 298.001 892.65 297.173 888.646 297.173C884.505 297.173 880.708 297.932 877.256 299.451C873.943 300.831 871.044 302.833 868.558 305.456C866.211 307.942 864.279 310.91 862.76 314.361C861.379 317.813 860.62 321.541 860.482 325.544H915.568ZM860.482 341.076C860.482 345.218 861.034 349.222 862.139 353.087C863.381 356.953 865.176 360.336 867.523 363.235C869.87 366.134 872.838 368.481 876.428 370.276C880.018 371.933 884.297 372.761 889.268 372.761C896.171 372.761 901.693 371.311 905.835 368.412C910.115 365.375 913.29 360.888 915.361 354.951H937.727C936.484 360.75 934.344 365.927 931.307 370.483C928.27 375.039 924.611 378.905 920.331 382.08C916.051 385.118 911.219 387.396 905.835 388.914C900.589 390.571 895.066 391.399 889.268 391.399C880.846 391.399 873.391 390.019 866.902 387.257C860.413 384.496 854.89 380.631 850.334 375.66C845.917 370.69 842.534 364.754 840.187 357.851C837.978 350.947 836.874 343.354 836.874 335.07C836.874 327.477 838.047 320.298 840.394 313.533C842.879 306.63 846.331 300.624 850.749 295.516C855.305 290.27 860.758 286.128 867.109 283.091C873.46 280.053 880.639 278.535 888.646 278.535C897.068 278.535 904.592 280.329 911.219 283.919C917.984 287.37 923.576 291.996 927.994 297.794C932.412 303.593 935.587 310.289 937.52 317.882C939.591 325.337 940.143 333.069 939.177 341.076H860.482ZM974.934 354.123C975.624 361.026 978.247 365.858 982.803 368.619C987.359 371.38 992.813 372.761 999.163 372.761C1001.37 372.761 1003.86 372.623 1006.62 372.347C1009.52 371.933 1012.21 371.242 1014.7 370.276C1017.18 369.31 1019.18 367.929 1020.7 366.134C1022.36 364.201 1023.12 361.716 1022.98 358.679C1022.84 355.642 1021.74 353.156 1019.67 351.224C1017.59 349.291 1014.9 347.772 1011.59 346.668C1008.41 345.425 1004.75 344.39 1000.61 343.561C996.471 342.733 992.26 341.835 987.981 340.869C983.563 339.903 979.283 338.729 975.141 337.348C971.137 335.968 967.478 334.104 964.165 331.757C960.99 329.41 958.436 326.442 956.503 322.852C954.57 319.124 953.603 314.568 953.603 309.184C953.603 303.386 954.984 298.553 957.745 294.688C960.644 290.684 964.234 287.509 968.514 285.162C972.932 282.676 977.764 280.951 983.01 279.984C988.395 279.018 993.503 278.535 998.335 278.535C1003.86 278.535 1009.1 279.156 1014.07 280.398C1019.18 281.503 1023.74 283.367 1027.74 285.99C1031.88 288.613 1035.27 292.065 1037.89 296.344C1040.65 300.486 1042.38 305.525 1043.07 311.462H1018.42C1017.32 305.802 1014.7 302.005 1010.55 300.072C1006.55 298.139 1001.92 297.173 996.678 297.173C995.022 297.173 993.02 297.311 990.673 297.587C988.464 297.863 986.324 298.415 984.253 299.244C982.32 299.934 980.663 301.039 979.283 302.557C977.902 303.938 977.212 305.802 977.212 308.149C977.212 311.048 978.178 313.395 980.111 315.19C982.182 316.985 984.805 318.503 987.981 319.746C991.294 320.85 995.022 321.817 999.163 322.645C1003.31 323.473 1007.59 324.371 1012 325.337C1016.28 326.304 1020.49 327.477 1024.64 328.858C1028.78 330.238 1032.44 332.102 1035.61 334.449C1038.92 336.796 1041.55 339.765 1043.48 343.354C1045.55 346.944 1046.59 351.362 1046.59 356.608C1046.59 362.959 1045.14 368.343 1042.24 372.761C1039.34 377.179 1035.54 380.769 1030.85 383.53C1026.29 386.291 1021.18 388.293 1015.52 389.535C1009.86 390.778 1004.27 391.399 998.749 391.399C991.984 391.399 985.703 390.64 979.904 389.121C974.243 387.603 969.273 385.325 964.993 382.287C960.852 379.112 957.538 375.246 955.053 370.69C952.706 365.996 951.463 360.474 951.325 354.123H974.934ZM1065.13 240.637H1088.74V263.003H1065.13V240.637ZM1065.13 281.434H1088.74V388.5H1065.13V281.434ZM1213.45 382.909C1213.45 399.062 1208.9 411.073 1199.79 418.942C1190.81 426.95 1177.83 430.954 1160.85 430.954C1155.47 430.954 1150.02 430.401 1144.49 429.297C1139.11 428.192 1134.14 426.329 1129.58 423.705C1125.16 421.082 1121.44 417.631 1118.4 413.351C1115.36 409.071 1113.57 403.825 1113.02 397.612H1136.62C1137.31 400.925 1138.49 403.618 1140.14 405.689C1141.8 407.759 1143.73 409.347 1145.94 410.452C1148.29 411.694 1150.84 412.454 1153.6 412.73C1156.37 413.144 1159.27 413.351 1162.3 413.351C1171.83 413.351 1178.8 411.004 1183.22 406.31C1187.64 401.616 1189.85 394.851 1189.85 386.015V369.655H1189.43C1186.12 375.591 1181.56 380.216 1175.76 383.53C1170.1 386.843 1163.96 388.5 1157.33 388.5C1148.77 388.5 1141.46 387.05 1135.38 384.151C1129.44 381.114 1124.47 377.041 1120.47 371.933C1116.6 366.686 1113.77 360.681 1111.98 353.916C1110.18 347.151 1109.29 339.903 1109.29 332.171C1109.29 324.992 1110.39 318.158 1112.6 311.669C1114.81 305.18 1117.99 299.52 1122.13 294.688C1126.27 289.718 1131.31 285.783 1137.24 282.884C1143.32 279.984 1150.15 278.535 1157.75 278.535C1164.51 278.535 1170.72 279.984 1176.38 282.884C1182.05 285.645 1186.39 290.063 1189.43 296.137H1189.85V281.434H1213.45V382.909ZM1161.06 369.862C1166.31 369.862 1170.72 368.826 1174.31 366.755C1178.04 364.546 1181.01 361.716 1183.22 358.265C1185.57 354.675 1187.22 350.671 1188.19 346.253C1189.29 341.697 1189.85 337.141 1189.85 332.585C1189.85 328.029 1189.29 323.611 1188.19 319.332C1187.08 315.052 1185.36 311.255 1183.01 307.942C1180.8 304.628 1177.83 302.005 1174.11 300.072C1170.52 298.139 1166.17 297.173 1161.06 297.173C1155.81 297.173 1151.4 298.277 1147.81 300.486C1144.22 302.695 1141.32 305.595 1139.11 309.184C1136.9 312.636 1135.31 316.639 1134.35 321.195C1133.38 325.613 1132.9 330.031 1132.9 334.449C1132.9 338.867 1133.45 343.216 1134.55 347.496C1135.66 351.638 1137.31 355.365 1139.52 358.679C1141.87 361.992 1144.77 364.685 1148.22 366.755C1151.81 368.826 1156.09 369.862 1161.06 369.862ZM1237.22 281.434H1259.59V297.173L1260 297.587C1263.59 291.65 1268.29 287.025 1274.08 283.712C1279.88 280.26 1286.3 278.535 1293.34 278.535C1305.08 278.535 1314.33 281.572 1321.09 287.647C1327.86 293.721 1331.24 302.833 1331.24 314.983V388.5H1307.63V321.195C1307.36 312.774 1305.56 306.699 1302.25 302.971C1298.94 299.106 1293.76 297.173 1286.72 297.173C1282.71 297.173 1279.12 297.932 1275.95 299.451C1272.77 300.831 1270.08 302.833 1267.87 305.456C1265.66 307.942 1263.94 310.91 1262.69 314.361C1261.45 317.813 1260.83 321.471 1260.83 325.337V388.5H1237.22V281.434ZM1514.63 388.5H1492.26V374.004H1491.85C1488.67 380.216 1484.05 384.703 1477.97 387.465C1471.9 390.088 1465.48 391.399 1458.71 391.399C1450.29 391.399 1442.91 389.95 1436.56 387.05C1430.34 384.013 1425.17 379.94 1421.02 374.832C1416.88 369.724 1413.78 363.718 1411.71 356.815C1409.63 349.774 1408.6 342.25 1408.6 334.242C1408.6 324.578 1409.91 316.225 1412.53 309.184C1415.16 302.143 1418.61 296.344 1422.89 291.788C1427.31 287.232 1432.28 283.919 1437.8 281.848C1443.46 279.639 1449.19 278.535 1454.99 278.535C1458.3 278.535 1461.68 278.88 1465.13 279.57C1468.59 280.122 1471.9 281.089 1475.08 282.469C1478.25 283.85 1481.15 285.645 1483.77 287.854C1486.53 289.925 1488.81 292.41 1490.61 295.309H1491.02V240.637H1514.63V388.5ZM1432.21 336.106C1432.21 340.662 1432.76 345.149 1433.86 349.567C1435.11 353.985 1436.9 357.92 1439.25 361.371C1441.73 364.823 1444.84 367.584 1448.57 369.655C1452.3 371.726 1456.71 372.761 1461.82 372.761C1467.07 372.761 1471.55 371.657 1475.28 369.448C1479.15 367.239 1482.25 364.339 1484.6 360.75C1487.09 357.16 1488.88 353.156 1489.99 348.739C1491.23 344.182 1491.85 339.557 1491.85 334.863C1491.85 322.99 1489.16 313.74 1483.77 307.113C1478.53 300.486 1471.35 297.173 1462.24 297.173C1456.71 297.173 1452.02 298.346 1448.15 300.693C1444.43 302.902 1441.32 305.871 1438.83 309.598C1436.49 313.188 1434.76 317.33 1433.66 322.024C1432.69 326.58 1432.21 331.274 1432.21 336.106ZM1613.89 325.544C1613.62 321.817 1612.79 318.227 1611.41 314.776C1610.17 311.324 1608.37 308.356 1606.02 305.871C1603.82 303.247 1601.05 301.177 1597.74 299.658C1594.57 298.001 1590.98 297.173 1586.97 297.173C1582.83 297.173 1579.03 297.932 1575.58 299.451C1572.27 300.831 1569.37 302.833 1566.88 305.456C1564.54 307.942 1562.6 310.91 1561.09 314.361C1559.71 317.813 1558.95 321.541 1558.81 325.544H1613.89ZM1558.81 341.076C1558.81 345.218 1559.36 349.222 1560.46 353.087C1561.71 356.953 1563.5 360.336 1565.85 363.235C1568.2 366.134 1571.16 368.481 1574.75 370.276C1578.34 371.933 1582.62 372.761 1587.59 372.761C1594.5 372.761 1600.02 371.311 1604.16 368.412C1608.44 365.375 1611.62 360.888 1613.69 354.951H1636.05C1634.81 360.75 1632.67 365.927 1629.63 370.483C1626.6 375.039 1622.94 378.905 1618.66 382.08C1614.38 385.118 1609.55 387.396 1604.16 388.914C1598.91 390.571 1593.39 391.399 1587.59 391.399C1579.17 391.399 1571.72 390.019 1565.23 387.257C1558.74 384.496 1553.22 380.631 1548.66 375.66C1544.24 370.69 1540.86 364.754 1538.51 357.851C1536.3 350.947 1535.2 343.354 1535.2 335.07C1535.2 327.477 1536.37 320.298 1538.72 313.533C1541.21 306.63 1544.66 300.624 1549.07 295.516C1553.63 290.27 1559.08 286.128 1565.43 283.091C1571.79 280.053 1578.96 278.535 1586.97 278.535C1595.39 278.535 1602.92 280.329 1609.55 283.919C1616.31 287.37 1621.9 291.996 1626.32 297.794C1630.74 303.593 1633.91 310.289 1635.85 317.882C1637.92 325.337 1638.47 333.069 1637.5 341.076H1558.81ZM695.911 451.637H761.145C771.637 451.637 780.197 453.156 786.824 456.193C793.451 459.23 798.559 463.027 802.149 467.583C805.738 472.139 808.154 477.109 809.397 482.494C810.777 487.878 811.468 492.848 811.468 497.404C811.468 501.96 810.777 506.93 809.397 512.315C808.154 517.561 805.738 522.462 802.149 527.018C798.559 531.574 793.451 535.371 786.824 538.408C780.197 541.307 771.637 542.757 761.145 542.757H721.797V599.5H695.911V451.637ZM721.797 521.634H759.695C762.594 521.634 765.562 521.22 768.6 520.391C771.637 519.563 774.398 518.251 776.883 516.456C779.507 514.524 781.578 512.039 783.096 509.001C784.753 505.826 785.581 501.891 785.581 497.197C785.581 492.365 784.891 488.361 783.51 485.186C782.13 482.01 780.266 479.525 777.919 477.73C775.572 475.798 772.88 474.486 769.842 473.796C766.805 473.105 763.561 472.76 760.109 472.76H721.797V521.634ZM830.726 492.434H852.884V513.143H853.298C853.989 510.244 855.3 507.413 857.233 504.652C859.304 501.891 861.72 499.406 864.481 497.197C867.381 494.85 870.556 492.986 874.008 491.606C877.459 490.225 880.98 489.535 884.569 489.535C887.33 489.535 889.194 489.604 890.161 489.742C891.265 489.88 892.37 490.018 893.474 490.156V512.936C891.817 512.66 890.092 512.453 888.297 512.315C886.64 512.039 884.983 511.9 883.327 511.9C879.323 511.9 875.526 512.729 871.937 514.386C868.485 515.904 865.448 518.251 862.825 521.427C860.201 524.464 858.131 528.261 856.612 532.817C855.093 537.373 854.334 542.619 854.334 548.556V599.5H830.726V492.434ZM948.971 602.399C940.412 602.399 932.749 601.019 925.984 598.257C919.357 595.358 913.697 591.423 909.003 586.453C904.447 581.483 900.926 575.546 898.441 568.643C896.094 561.74 894.921 554.147 894.921 545.863C894.921 537.718 896.094 530.193 898.441 523.29C900.926 516.387 904.447 510.451 909.003 505.481C913.697 500.51 919.357 496.645 925.984 493.884C932.749 490.984 940.412 489.535 948.971 489.535C957.531 489.535 965.124 490.984 971.751 493.884C978.516 496.645 984.177 500.51 988.733 505.481C993.427 510.451 996.947 516.387 999.294 523.29C1001.78 530.193 1003.02 537.718 1003.02 545.863C1003.02 554.147 1001.78 561.74 999.294 568.643C996.947 575.546 993.427 581.483 988.733 586.453C984.177 591.423 978.516 595.358 971.751 598.257C965.124 601.019 957.531 602.399 948.971 602.399ZM948.971 583.761C954.218 583.761 958.774 582.657 962.639 580.448C966.505 578.239 969.68 575.339 972.166 571.75C974.651 568.16 976.445 564.156 977.55 559.739C978.792 555.182 979.414 550.557 979.414 545.863C979.414 541.307 978.792 536.751 977.55 532.195C976.445 527.639 974.651 523.636 972.166 520.184C969.68 516.595 966.505 513.695 962.639 511.486C958.774 509.277 954.218 508.173 948.971 508.173C943.725 508.173 939.169 509.277 935.303 511.486C931.438 513.695 928.262 516.595 925.777 520.184C923.292 523.636 921.428 527.639 920.186 532.195C919.081 536.751 918.529 541.307 918.529 545.863C918.529 550.557 919.081 555.182 920.186 559.739C921.428 564.156 923.292 568.16 925.777 571.75C928.262 575.339 931.438 578.239 935.303 580.448C939.169 582.657 943.725 583.761 948.971 583.761ZM1123.5 599.5H1101.14V585.004H1100.72C1097.55 591.216 1092.92 595.703 1086.85 598.465C1080.77 601.088 1074.35 602.399 1067.59 602.399C1059.17 602.399 1051.78 600.95 1045.43 598.05C1039.22 595.013 1034.04 590.94 1029.9 585.832C1025.76 580.724 1022.65 574.718 1020.58 567.815C1018.51 560.774 1017.47 553.25 1017.47 545.242C1017.47 535.578 1018.78 527.225 1021.41 520.184C1024.03 513.143 1027.48 507.344 1031.76 502.788C1036.18 498.232 1041.15 494.919 1046.67 492.848C1052.33 490.639 1058.06 489.535 1063.86 489.535C1067.17 489.535 1070.56 489.88 1074.01 490.57C1077.46 491.122 1080.77 492.089 1083.95 493.469C1087.12 494.85 1090.02 496.645 1092.65 498.854C1095.41 500.925 1097.68 503.41 1099.48 506.309H1099.89V451.637H1123.5V599.5ZM1041.08 547.106C1041.08 551.662 1041.63 556.149 1042.74 560.567C1043.98 564.985 1045.77 568.92 1048.12 572.371C1050.61 575.823 1053.71 578.584 1057.44 580.655C1061.17 582.726 1065.59 583.761 1070.69 583.761C1075.94 583.761 1080.43 582.657 1084.15 580.448C1088.02 578.239 1091.13 575.339 1093.47 571.75C1095.96 568.16 1097.75 564.156 1098.86 559.739C1100.1 555.182 1100.72 550.557 1100.72 545.863C1100.72 533.99 1098.03 524.74 1092.65 518.113C1087.4 511.486 1080.22 508.173 1071.11 508.173C1065.59 508.173 1060.89 509.346 1057.03 511.693C1053.3 513.902 1050.19 516.871 1047.71 520.598C1045.36 524.188 1043.63 528.33 1042.53 533.024C1041.56 537.58 1041.08 542.274 1041.08 547.106ZM1243.27 599.5H1220.07V584.589H1219.66C1216.76 589.974 1212.41 594.323 1206.61 597.636C1200.95 600.812 1195.15 602.399 1189.22 602.399C1175.14 602.399 1164.92 598.948 1158.57 592.045C1152.36 585.004 1149.25 574.442 1149.25 560.36V492.434H1172.86V558.082C1172.86 567.47 1174.65 574.097 1178.24 577.963C1181.83 581.828 1186.87 583.761 1193.36 583.761C1198.33 583.761 1202.47 583.002 1205.79 581.483C1209.1 579.964 1211.79 577.963 1213.86 575.477C1215.93 572.854 1217.38 569.748 1218.21 566.158C1219.18 562.569 1219.66 558.703 1219.66 554.561V492.434H1243.27V599.5ZM1257.4 492.434H1275.21V460.335H1298.81V492.434H1320.14V510.037H1298.81V567.194C1298.81 569.679 1298.88 571.819 1299.02 573.614C1299.3 575.408 1299.78 576.927 1300.47 578.17C1301.3 579.412 1302.47 580.379 1303.99 581.069C1305.51 581.621 1307.58 581.897 1310.2 581.897C1311.86 581.897 1313.52 581.897 1315.17 581.897C1316.83 581.759 1318.49 581.483 1320.14 581.069V599.293C1317.52 599.569 1314.97 599.845 1312.48 600.121C1310 600.397 1307.44 600.535 1304.82 600.535C1298.61 600.535 1293.57 599.983 1289.7 598.879C1285.97 597.636 1283.01 595.91 1280.8 593.701C1278.73 591.354 1277.28 588.455 1276.45 585.004C1275.76 581.552 1275.34 577.617 1275.21 573.199V510.037H1257.4V492.434ZM1386.21 602.399C1377.65 602.399 1369.99 601.019 1363.22 598.257C1356.59 595.358 1350.93 591.423 1346.24 586.453C1341.68 581.483 1338.16 575.546 1335.68 568.643C1333.33 561.74 1332.16 554.147 1332.16 545.863C1332.16 537.718 1333.33 530.193 1335.68 523.29C1338.16 516.387 1341.68 510.451 1346.24 505.481C1350.93 500.51 1356.59 496.645 1363.22 493.884C1369.99 490.984 1377.65 489.535 1386.21 489.535C1394.77 489.535 1402.36 490.984 1408.99 493.884C1415.75 496.645 1421.41 500.51 1425.97 505.481C1430.66 510.451 1434.18 516.387 1436.53 523.29C1439.02 530.193 1440.26 537.718 1440.26 545.863C1440.26 554.147 1439.02 561.74 1436.53 568.643C1434.18 575.546 1430.66 581.483 1425.97 586.453C1421.41 591.423 1415.75 595.358 1408.99 598.257C1402.36 601.019 1394.77 602.399 1386.21 602.399ZM1386.21 583.761C1391.46 583.761 1396.01 582.657 1399.88 580.448C1403.74 578.239 1406.92 575.339 1409.4 571.75C1411.89 568.16 1413.68 564.156 1414.79 559.739C1416.03 555.182 1416.65 550.557 1416.65 545.863C1416.65 541.307 1416.03 536.751 1414.79 532.195C1413.68 527.639 1411.89 523.636 1409.4 520.184C1406.92 516.595 1403.74 513.695 1399.88 511.486C1396.01 509.277 1391.46 508.173 1386.21 508.173C1380.96 508.173 1376.41 509.277 1372.54 511.486C1368.67 513.695 1365.5 516.595 1363.01 520.184C1360.53 523.636 1358.67 527.639 1357.42 532.195C1356.32 536.751 1355.77 541.307 1355.77 545.863C1355.77 550.557 1356.32 555.182 1357.42 559.739C1358.67 564.156 1360.53 568.16 1363.01 571.75C1365.5 575.339 1368.67 578.239 1372.54 580.448C1376.41 582.657 1380.96 583.761 1386.21 583.761Z" fill="#474747"/>
</svg>
