<svg width="1975" height="870" viewBox="0 0 1975 870" fill="none" xmlns="http://www.w3.org/2000/svg">
<path d="M659.811 247.65L408.231 102.4C407.161 101.74 406.011 101.2 404.811 100.81C404.751 100.79 404.691 100.77 404.631 100.75C404.371 100.67 404.111 100.59 403.851 100.52C403.741 100.49 403.621 100.46 403.511 100.43C403.301 100.38 403.081 100.33 402.871 100.29C402.731 100.26 402.591 100.24 402.461 100.22C402.261 100.19 402.051 100.15 401.851 100.13C401.721 100.11 401.581 100.1 401.451 100.08C401.231 100.06 401.011 100.04 400.791 100.03C400.681 100.03 400.571 100.02 400.451 100.01C400.201 100.01 399.951 100 399.701 100C399.621 100 399.541 100 399.461 100C399.181 100 398.901 100.02 398.621 100.04C398.571 100.04 398.521 100.04 398.471 100.05C398.171 100.08 397.881 100.11 397.581 100.15C397.541 100.15 397.511 100.16 397.471 100.17C397.171 100.22 396.881 100.27 396.581 100.33C396.541 100.33 396.491 100.35 396.451 100.36C396.171 100.42 395.901 100.49 395.621 100.57C395.541 100.59 395.461 100.62 395.381 100.64C395.151 100.71 394.921 100.78 394.691 100.86C394.531 100.91 394.381 100.97 394.231 101.03C394.081 101.09 393.931 101.14 393.781 101.21C393.041 101.51 392.321 101.88 391.641 102.29L139.831 247.65C129.161 253.81 129.161 269.21 139.831 275.37L222.681 323.2C261.321 266.62 326.331 229.48 400.011 229.48C473.691 229.48 538.581 266.55 577.231 323.04L659.801 275.37C670.471 269.21 670.471 253.81 659.801 247.65H659.811Z" fill="#434343"/>
<path d="M383.675 459.08C383.665 459.02 383.645 458.96 383.635 458.9C383.575 458.63 383.515 458.37 383.445 458.11C383.415 458 383.385 457.89 383.345 457.77C383.285 457.56 383.215 457.35 383.145 457.14C383.105 457.01 383.055 456.88 383.005 456.75C382.935 456.55 382.855 456.36 382.775 456.17C382.725 456.05 382.665 455.92 382.615 455.8C382.525 455.6 382.425 455.4 382.335 455.2C382.285 455.1 382.235 455 382.185 454.9C382.065 454.68 381.945 454.46 381.825 454.25C381.785 454.18 381.745 454.11 381.705 454.04C381.565 453.8 381.405 453.57 381.255 453.34C381.225 453.3 381.195 453.26 381.165 453.22C380.995 452.98 380.815 452.74 380.625 452.5C380.605 452.47 380.585 452.44 380.555 452.42C380.365 452.18 380.175 451.95 379.965 451.73C379.935 451.7 379.905 451.67 379.875 451.63C379.685 451.42 379.485 451.21 379.285 451.01C379.225 450.95 379.165 450.9 379.105 450.84C378.925 450.67 378.755 450.51 378.565 450.35C378.445 450.24 378.315 450.14 378.185 450.04C378.055 449.94 377.935 449.83 377.805 449.73C377.175 449.24 376.505 448.8 375.805 448.41L124.015 303.03C113.345 296.87 100.005 304.57 100.005 316.89V607.4C99.9751 608.66 100.075 609.92 100.335 611.15C100.345 611.21 100.365 611.27 100.375 611.33C100.435 611.59 100.495 611.86 100.565 612.12C100.595 612.23 100.625 612.35 100.665 612.46C100.725 612.67 100.795 612.88 100.865 613.09C100.915 613.22 100.955 613.35 101.005 613.48C101.075 613.67 101.155 613.87 101.235 614.06C101.285 614.19 101.345 614.31 101.395 614.43C101.485 614.63 101.575 614.83 101.675 615.03C101.725 615.13 101.775 615.23 101.825 615.33C101.945 615.55 102.065 615.77 102.185 615.98C102.225 616.05 102.265 616.12 102.305 616.19C102.445 616.43 102.605 616.66 102.755 616.89C102.785 616.93 102.815 616.98 102.845 617.02C103.015 617.26 103.195 617.5 103.375 617.74C103.395 617.77 103.415 617.8 103.445 617.82C103.635 618.05 103.825 618.29 104.035 618.51C104.065 618.54 104.095 618.58 104.125 618.61C104.315 618.82 104.515 619.02 104.715 619.22C104.775 619.28 104.835 619.33 104.895 619.39C105.075 619.56 105.245 619.72 105.435 619.88C105.555 619.99 105.685 620.09 105.815 620.2C105.945 620.3 106.065 620.41 106.195 620.51C106.825 621 107.495 621.44 108.195 621.83L359.975 767.2C370.645 773.36 383.985 765.66 383.985 753.34V462.83C384.015 461.57 383.915 460.31 383.655 459.07L383.675 459.08Z" fill="#434343"/>
<path d="M695.886 618.62C695.886 618.62 695.946 618.55 695.976 618.52C696.176 618.29 696.376 618.06 696.556 617.83C696.576 617.8 696.606 617.77 696.626 617.74C696.816 617.5 696.986 617.26 697.156 617.02C697.186 616.98 697.216 616.94 697.246 616.89C697.406 616.66 697.556 616.43 697.696 616.19C697.736 616.12 697.776 616.05 697.816 615.98C697.946 615.77 698.066 615.55 698.176 615.33C698.226 615.23 698.276 615.13 698.326 615.03C698.426 614.83 698.516 614.63 698.606 614.43C698.666 614.31 698.716 614.18 698.766 614.06C698.846 613.87 698.916 613.68 698.996 613.48C699.046 613.35 699.096 613.22 699.136 613.09C699.206 612.88 699.276 612.67 699.336 612.46C699.366 612.35 699.406 612.23 699.436 612.12C699.506 611.86 699.566 611.59 699.626 611.33C699.636 611.27 699.656 611.21 699.666 611.15C699.926 609.91 700.026 608.65 699.996 607.4V316.89C699.996 304.57 686.656 296.87 675.996 303.03L424.216 448.4C423.516 448.79 422.846 449.23 422.216 449.72C422.086 449.82 421.966 449.92 421.836 450.02C421.706 450.13 421.576 450.23 421.456 450.34C421.276 450.5 421.096 450.66 420.916 450.83C420.856 450.89 420.796 450.94 420.736 451C420.536 451.2 420.336 451.41 420.146 451.61C420.116 451.64 420.086 451.68 420.056 451.71C419.856 451.94 419.656 452.17 419.476 452.4C419.456 452.43 419.426 452.46 419.406 452.49C419.216 452.73 419.046 452.96 418.876 453.21C418.846 453.25 418.816 453.29 418.786 453.34C418.626 453.57 418.476 453.8 418.336 454.04C418.296 454.11 418.256 454.18 418.216 454.25C418.086 454.46 417.966 454.68 417.856 454.9C417.806 455 417.756 455.1 417.706 455.2C417.606 455.4 417.516 455.6 417.426 455.8C417.366 455.92 417.316 456.05 417.266 456.17C417.186 456.36 417.116 456.55 417.036 456.75C416.986 456.88 416.936 457.01 416.896 457.14C416.826 457.35 416.756 457.56 416.696 457.77C416.666 457.88 416.626 458 416.596 458.11C416.526 458.37 416.466 458.64 416.406 458.9C416.396 458.96 416.376 459.02 416.366 459.08C416.106 460.32 416.006 461.57 416.036 462.83V753.34C416.036 765.66 429.376 773.36 440.036 767.2L691.816 621.83C692.516 621.44 693.186 621 693.816 620.51C693.946 620.41 694.066 620.31 694.196 620.2C694.326 620.1 694.456 619.99 694.576 619.88C694.756 619.72 694.936 619.56 695.116 619.39C695.176 619.33 695.236 619.28 695.296 619.22C695.496 619.02 695.696 618.82 695.886 618.61V618.62Z" fill="#434343"/>
<path d="M771.781 164.07H850.391V178.76H819.521V261.18H802.521V178.76H771.781V164.07Z" fill="#434343"/>
<path d="M856.498 230.03C856.498 232.75 856.878 235.38 857.658 237.92C858.428 240.46 859.578 242.68 861.128 244.58C862.668 246.48 864.618 248 866.978 249.14C869.338 250.27 872.148 250.84 875.408 250.84C879.938 250.84 883.588 249.87 886.358 247.92C889.118 245.97 891.188 243.05 892.548 239.15H907.238C906.418 242.96 905.018 246.36 903.018 249.35C901.018 252.34 898.618 254.86 895.808 256.9C892.998 258.94 889.848 260.48 886.358 261.52C882.868 262.56 879.218 263.08 875.408 263.08C869.878 263.08 864.978 262.17 860.718 260.36C856.458 258.55 852.848 256.01 849.908 252.74C846.958 249.48 844.738 245.58 843.248 241.04C841.748 236.51 841.008 231.52 841.008 226.08C841.008 221.09 841.798 216.36 843.388 211.87C844.968 207.38 847.238 203.44 850.188 200.04C853.138 196.64 856.688 193.94 860.868 191.95C865.038 189.96 869.748 188.96 875.008 188.96C880.538 188.96 885.498 190.12 889.898 192.43C894.298 194.74 897.948 197.8 900.848 201.61C903.748 205.42 905.858 209.79 907.168 214.73C908.478 219.67 908.818 224.77 908.188 230.03H856.508H856.498ZM892.678 219.83C892.498 217.38 891.978 215.03 891.118 212.76C890.258 210.49 889.078 208.52 887.578 206.84C886.078 205.16 884.268 203.8 882.138 202.76C880.008 201.72 877.628 201.2 874.998 201.2C872.368 201.2 869.808 201.68 867.588 202.63C865.368 203.58 863.458 204.9 861.878 206.57C860.288 208.25 859.018 210.22 858.068 212.49C857.118 214.76 856.588 217.21 856.508 219.83H892.688H892.678Z" fill="#434343"/>
<path d="M967.479 214.39C966.839 210.04 965.099 206.75 962.239 204.53C959.379 202.31 955.779 201.2 951.429 201.2C949.429 201.2 947.299 201.54 945.039 202.22C942.769 202.9 940.689 204.17 938.779 206.03C936.879 207.89 935.289 210.47 934.019 213.78C932.749 217.09 932.119 221.42 932.119 226.77C932.119 229.67 932.459 232.57 933.139 235.47C933.819 238.37 934.909 240.96 936.399 243.22C937.899 245.49 939.819 247.32 942.179 248.73C944.539 250.14 947.389 250.84 950.749 250.84C955.279 250.84 959.019 249.44 961.969 246.62C964.919 243.81 966.749 239.87 967.479 234.79H982.979C981.529 243.95 978.059 250.95 972.579 255.8C967.089 260.65 959.819 263.08 950.749 263.08C945.219 263.08 940.349 262.15 936.129 260.29C931.909 258.43 928.349 255.89 925.449 252.67C922.549 249.45 920.349 245.62 918.849 241.18C917.349 236.74 916.609 231.93 916.609 226.76C916.609 221.59 917.329 216.56 918.789 211.94C920.239 207.32 922.419 203.3 925.319 199.9C928.219 196.5 931.819 193.83 936.129 191.88C940.429 189.93 945.489 188.96 951.289 188.96C955.369 188.96 959.249 189.48 962.919 190.52C966.589 191.56 969.859 193.13 972.709 195.21C975.569 197.3 977.899 199.93 979.709 203.1C981.519 206.27 982.609 210.04 982.969 214.39H967.469H967.479Z" fill="#434343"/>
<path d="M995.633 190.871H1010.32V201.211L1010.59 201.481C1012.95 197.581 1016.03 194.521 1019.84 192.301C1023.65 190.081 1027.86 188.971 1032.49 188.971C1040.2 188.971 1046.27 190.971 1050.71 194.951C1055.15 198.941 1057.37 204.921 1057.37 212.901V261.181H1041.87V216.981C1041.69 211.451 1040.51 207.441 1038.33 204.941C1036.15 202.451 1032.75 201.201 1028.13 201.201C1025.5 201.201 1023.14 201.681 1021.06 202.631C1018.97 203.581 1017.21 204.901 1015.76 206.571C1014.31 208.251 1013.18 210.221 1012.36 212.491C1011.54 214.761 1011.14 217.161 1011.14 219.701V261.181H995.643V190.871H995.633Z" fill="#434343"/>
<path d="M1105.93 263.08C1100.31 263.08 1095.3 262.15 1090.9 260.29C1086.5 258.43 1082.78 255.87 1079.75 252.61C1076.71 249.35 1074.4 245.45 1072.81 240.91C1071.22 236.38 1070.43 231.39 1070.43 225.95C1070.43 220.51 1071.22 215.66 1072.81 211.13C1074.39 206.6 1076.71 202.7 1079.75 199.43C1082.79 196.17 1086.5 193.61 1090.9 191.75C1095.3 189.89 1100.31 188.96 1105.93 188.96C1111.55 188.96 1116.56 189.89 1120.96 191.75C1125.36 193.61 1129.07 196.17 1132.11 199.43C1135.15 202.69 1137.46 206.59 1139.05 211.13C1140.63 215.66 1141.43 220.61 1141.43 225.95C1141.43 231.29 1140.64 236.38 1139.05 240.91C1137.46 245.44 1135.15 249.34 1132.11 252.61C1129.07 255.87 1125.35 258.44 1120.96 260.29C1116.56 262.15 1111.55 263.08 1105.93 263.08ZM1105.93 250.84C1109.38 250.84 1112.37 250.12 1114.91 248.66C1117.45 247.21 1119.53 245.31 1121.17 242.95C1122.8 240.59 1124 237.94 1124.77 234.99C1125.54 232.04 1125.93 229.03 1125.93 225.95C1125.93 222.87 1125.54 219.97 1124.77 216.97C1124 213.98 1122.8 211.33 1121.17 209.01C1119.54 206.7 1117.45 204.82 1114.91 203.37C1112.37 201.92 1109.38 201.19 1105.93 201.19C1102.48 201.19 1099.49 201.92 1096.95 203.37C1094.41 204.82 1092.33 206.7 1090.69 209.01C1089.06 211.32 1087.86 213.97 1087.09 216.97C1086.32 219.96 1085.93 222.95 1085.93 225.95C1085.93 228.95 1086.31 232.05 1087.09 234.99C1087.86 237.94 1089.06 240.59 1090.69 242.95C1092.32 245.31 1094.41 247.21 1096.95 248.66C1099.49 250.11 1102.48 250.84 1105.93 250.84Z" fill="#434343"/>
<path d="M1154.75 164.07H1170.25V261.17H1154.75V164.07Z" fill="#434343"/>
<path d="M1219.35 263.08C1213.73 263.08 1208.72 262.15 1204.32 260.29C1199.92 258.43 1196.2 255.87 1193.17 252.61C1190.13 249.35 1187.82 245.45 1186.23 240.91C1184.64 236.38 1183.85 231.39 1183.85 225.95C1183.85 220.51 1184.64 215.66 1186.23 211.13C1187.81 206.6 1190.13 202.7 1193.17 199.43C1196.21 196.17 1199.92 193.61 1204.32 191.75C1208.72 189.89 1213.73 188.96 1219.35 188.96C1224.97 188.96 1229.98 189.89 1234.38 191.75C1238.78 193.61 1242.49 196.17 1245.53 199.43C1248.57 202.69 1250.88 206.59 1252.47 211.13C1254.05 215.66 1254.85 220.61 1254.85 225.95C1254.85 231.29 1254.06 236.38 1252.47 240.91C1250.88 245.44 1248.57 249.34 1245.53 252.61C1242.49 255.87 1238.77 258.44 1234.38 260.29C1229.98 262.15 1224.97 263.08 1219.35 263.08ZM1219.35 250.84C1222.8 250.84 1225.79 250.12 1228.33 248.66C1230.87 247.21 1232.95 245.31 1234.59 242.95C1236.22 240.59 1237.42 237.94 1238.19 234.99C1238.96 232.04 1239.35 229.03 1239.35 225.95C1239.35 222.87 1238.96 219.97 1238.19 216.97C1237.42 213.98 1236.22 211.33 1234.59 209.01C1232.96 206.7 1230.87 204.82 1228.33 203.37C1225.79 201.92 1222.8 201.19 1219.35 201.19C1215.9 201.19 1212.91 201.92 1210.37 203.37C1207.83 204.82 1205.75 206.7 1204.11 209.01C1202.48 211.32 1201.28 213.97 1200.51 216.97C1199.74 219.96 1199.35 222.95 1199.35 225.95C1199.35 228.95 1199.73 232.05 1200.51 234.99C1201.28 237.94 1202.48 240.59 1204.11 242.95C1205.74 245.31 1207.83 247.21 1210.37 248.66C1212.91 250.11 1215.9 250.84 1219.35 250.84Z" fill="#434343"/>
<path d="M1332.77 257.51C1332.77 268.12 1329.8 276.03 1323.86 281.24C1317.92 286.45 1309.38 289.06 1298.22 289.06C1294.68 289.06 1291.12 288.7 1287.54 287.97C1283.96 287.24 1280.69 286.02 1277.75 284.3C1274.8 282.58 1272.33 280.31 1270.34 277.5C1268.34 274.69 1267.17 271.24 1266.8 267.16H1282.3C1282.75 269.34 1283.52 271.1 1284.61 272.46C1285.7 273.82 1286.99 274.88 1288.49 275.66C1289.99 276.43 1291.64 276.93 1293.45 277.16C1295.26 277.39 1297.17 277.5 1299.16 277.5C1305.42 277.5 1309.99 275.96 1312.9 272.88C1315.8 269.8 1317.25 265.35 1317.25 259.55V248.81H1316.98C1314.8 252.71 1311.83 255.75 1308.07 257.92C1304.31 260.1 1300.25 261.18 1295.9 261.18C1290.28 261.18 1285.5 260.21 1281.55 258.26C1277.61 256.31 1274.34 253.64 1271.76 250.24C1269.18 246.84 1267.29 242.92 1266.12 238.48C1264.94 234.04 1264.35 229.28 1264.35 224.2C1264.35 219.49 1265.07 215 1266.53 210.74C1267.98 206.48 1270.07 202.74 1272.79 199.52C1275.51 196.3 1278.84 193.74 1282.79 191.84C1286.73 189.94 1291.2 188.98 1296.19 188.98C1300.63 188.98 1304.71 189.91 1308.43 191.77C1312.15 193.63 1315 196.55 1317 200.54H1317.27V190.88H1332.77V257.52V257.51ZM1298.36 248.94C1301.81 248.94 1304.73 248.24 1307.13 246.83C1309.53 245.43 1311.48 243.57 1312.98 241.25C1314.48 238.93 1315.56 236.31 1316.24 233.36C1316.92 230.41 1317.26 227.44 1317.26 224.45C1317.26 221.46 1316.9 218.56 1316.17 215.75C1315.44 212.94 1314.33 210.45 1312.84 208.27C1311.34 206.09 1309.39 204.37 1306.99 203.1C1304.59 201.83 1301.71 201.2 1298.35 201.2C1294.99 201.2 1292 201.93 1289.65 203.38C1287.29 204.83 1285.39 206.71 1283.94 209.02C1282.49 211.33 1281.45 213.96 1280.81 216.91C1280.18 219.86 1279.86 222.78 1279.86 225.68C1279.86 228.58 1280.22 231.42 1280.95 234.18C1281.67 236.95 1282.79 239.42 1284.28 241.59C1285.78 243.77 1287.68 245.53 1289.99 246.89C1292.3 248.25 1295.09 248.93 1298.35 248.93L1298.36 248.94Z" fill="#434343"/>
<path d="M1348.82 164.07H1364.32V178.76H1348.82V164.07ZM1348.82 190.87H1364.32V261.18H1348.82V190.87Z" fill="#434343"/>
<path d="M1440.07 245.54C1440.07 247.44 1440.32 248.8 1440.82 249.62C1441.32 250.44 1442.29 250.84 1443.74 250.84H1445.37C1446 250.84 1446.73 250.75 1447.55 250.57V261.31C1447.01 261.49 1446.3 261.69 1445.44 261.92C1444.58 262.15 1443.69 262.35 1442.79 262.53C1441.88 262.71 1440.98 262.85 1440.07 262.94C1439.16 263.03 1438.39 263.08 1437.76 263.08C1434.59 263.08 1431.96 262.44 1429.87 261.18C1427.78 259.91 1426.42 257.69 1425.79 254.52C1422.71 257.51 1418.92 259.69 1414.43 261.05C1409.94 262.41 1405.61 263.09 1401.44 263.09C1398.27 263.09 1395.23 262.66 1392.33 261.8C1389.43 260.94 1386.87 259.67 1384.65 257.99C1382.43 256.31 1380.66 254.18 1379.35 251.6C1378.03 249.02 1377.38 246 1377.38 242.56C1377.38 238.21 1378.17 234.67 1379.76 231.95C1381.34 229.23 1383.43 227.1 1386.02 225.56C1388.6 224.02 1391.5 222.91 1394.72 222.23C1397.94 221.55 1401.18 221.03 1404.44 220.67C1407.25 220.13 1409.92 219.74 1412.46 219.51C1415 219.28 1417.24 218.9 1419.19 218.35C1421.14 217.81 1422.68 216.97 1423.81 215.83C1424.94 214.69 1425.51 213 1425.51 210.73C1425.51 208.74 1425.03 207.11 1424.08 205.83C1423.13 204.56 1421.95 203.59 1420.54 202.91C1419.13 202.23 1417.57 201.78 1415.85 201.55C1414.13 201.32 1412.49 201.21 1410.95 201.21C1406.6 201.21 1403.01 202.12 1400.21 203.93C1397.4 205.74 1395.81 208.55 1395.45 212.36H1379.95C1380.22 207.83 1381.31 204.06 1383.21 201.07C1385.11 198.08 1387.54 195.68 1390.49 193.86C1393.44 192.05 1396.77 190.78 1400.49 190.05C1404.21 189.33 1408.02 188.96 1411.91 188.96C1415.35 188.96 1418.75 189.32 1422.11 190.05C1425.46 190.78 1428.48 191.95 1431.15 193.59C1433.82 195.22 1435.98 197.33 1437.61 199.91C1439.24 202.49 1440.06 205.65 1440.06 209.36V245.54H1440.07ZM1424.57 225.95C1422.21 227.49 1419.31 228.42 1415.87 228.74C1412.42 229.06 1408.98 229.53 1405.53 230.17C1403.9 230.44 1402.31 230.83 1400.77 231.33C1399.23 231.83 1397.87 232.51 1396.69 233.37C1395.51 234.23 1394.58 235.37 1393.9 236.77C1393.22 238.18 1392.88 239.88 1392.88 241.87C1392.88 243.59 1393.38 245.04 1394.38 246.22C1395.38 247.4 1396.58 248.33 1397.98 249.01C1399.38 249.69 1400.93 250.17 1402.6 250.44C1404.28 250.71 1405.8 250.85 1407.16 250.85C1408.88 250.85 1410.74 250.62 1412.74 250.17C1414.73 249.72 1416.62 248.95 1418.38 247.86C1420.15 246.77 1421.62 245.39 1422.8 243.71C1423.98 242.03 1424.57 239.97 1424.57 237.52V225.96V225.95Z" fill="#434343"/>
<path d="M1506.71 230.03C1506.71 232.75 1507.09 235.38 1507.87 237.92C1508.64 240.46 1509.8 242.68 1511.34 244.58C1512.88 246.48 1514.83 248 1517.19 249.14C1519.55 250.27 1522.36 250.84 1525.62 250.84C1530.15 250.84 1533.8 249.87 1536.57 247.92C1539.33 245.97 1541.4 243.05 1542.76 239.15H1557.45C1556.63 242.96 1555.23 246.36 1553.23 249.35C1551.23 252.34 1548.83 254.86 1546.02 256.9C1543.21 258.94 1540.06 260.48 1536.57 261.52C1533.08 262.56 1529.43 263.08 1525.62 263.08C1520.09 263.08 1515.19 262.17 1510.93 260.36C1506.67 258.55 1503.06 256.01 1500.12 252.74C1497.17 249.48 1494.95 245.58 1493.46 241.04C1491.96 236.51 1491.22 231.52 1491.22 226.08C1491.22 221.09 1492.01 216.36 1493.6 211.87C1495.19 207.38 1497.45 203.44 1500.4 200.04C1503.34 196.64 1506.9 193.94 1511.08 191.95C1515.25 189.96 1519.96 188.96 1525.22 188.96C1530.75 188.96 1535.71 190.12 1540.11 192.43C1544.51 194.74 1548.15 197.8 1551.06 201.61C1553.96 205.42 1556.07 209.79 1557.38 214.73C1558.69 219.67 1559.03 224.77 1558.4 230.03H1506.72H1506.71ZM1542.89 219.83C1542.71 217.38 1542.19 215.03 1541.33 212.76C1540.47 210.49 1539.29 208.52 1537.79 206.84C1536.29 205.16 1534.48 203.8 1532.35 202.76C1530.22 201.72 1527.84 201.2 1525.21 201.2C1522.58 201.2 1520.02 201.68 1517.8 202.63C1515.58 203.58 1513.67 204.9 1512.09 206.57C1510.5 208.25 1509.23 210.22 1508.28 212.49C1507.33 214.76 1506.81 217.21 1506.72 219.83H1542.9H1542.89Z" fill="#434343"/>
<path d="M1570.22 190.871H1584.91V200.661H1585.32C1586.5 198.941 1587.77 197.351 1589.13 195.901C1590.49 194.451 1592.01 193.231 1593.69 192.231C1595.37 191.231 1597.29 190.441 1599.47 189.851C1601.65 189.261 1604.14 188.971 1606.95 188.971C1611.21 188.971 1615.18 189.921 1618.85 191.831C1622.52 193.731 1625.13 196.681 1626.67 200.671C1629.3 197.051 1632.34 194.191 1635.78 192.101C1639.22 190.021 1643.53 188.971 1648.7 188.971C1656.13 188.971 1661.91 190.781 1666.04 194.411C1670.16 198.041 1672.23 204.111 1672.23 212.631V261.181H1656.73V220.111C1656.73 217.301 1656.64 214.741 1656.46 212.431C1656.28 210.121 1655.76 208.121 1654.9 206.451C1654.04 204.771 1652.74 203.481 1651.02 202.571C1649.3 201.661 1646.94 201.211 1643.95 201.211C1638.69 201.211 1634.88 202.841 1632.53 206.111C1630.17 209.371 1628.99 214.001 1628.99 219.981V261.191H1613.49V216.041C1613.49 211.141 1612.61 207.451 1610.84 204.961C1609.07 202.471 1605.83 201.221 1601.12 201.221C1599.12 201.221 1597.2 201.631 1595.34 202.441C1593.48 203.261 1591.85 204.441 1590.44 205.981C1589.03 207.521 1587.9 209.431 1587.04 211.691C1586.18 213.961 1585.75 216.541 1585.75 219.441V261.191H1570.25V190.881L1570.22 190.871Z" fill="#434343"/>
<path d="M771.664 293.191H843.434C856.684 293.191 868.164 295.461 877.864 299.981C887.564 304.511 895.484 310.691 901.624 318.531C907.764 326.371 912.334 335.551 915.324 346.051C918.314 356.561 919.814 367.791 919.814 379.751C919.814 391.711 918.314 402.951 915.324 413.451C912.334 423.961 907.764 433.131 901.624 440.971C895.474 448.811 887.564 455.001 877.864 459.521C868.164 464.051 856.684 466.311 843.434 466.311H771.664V293.181V293.191ZM801.974 441.591H831.794C843.594 441.591 853.254 440.011 860.774 436.861C868.294 433.711 874.194 429.341 878.474 423.771C882.754 418.191 885.664 411.651 887.204 404.131C888.734 396.611 889.504 388.491 889.504 379.761C889.504 371.031 888.734 362.911 887.204 355.391C885.664 347.871 882.754 341.331 878.474 335.751C874.184 330.171 868.284 325.811 860.774 322.661C853.254 319.511 843.594 317.931 831.794 317.931H801.974V441.591Z" fill="#434343"/>
<path d="M964.423 410.791C964.423 415.641 965.113 420.331 966.483 424.851C967.853 429.381 969.913 433.341 972.663 436.731C975.413 440.131 978.883 442.831 983.093 444.851C987.293 446.871 992.303 447.881 998.123 447.881C1006.2 447.881 1012.71 446.151 1017.64 442.671C1022.57 439.201 1026.25 433.981 1028.67 427.031H1054.86C1053.41 433.821 1050.9 439.881 1047.34 445.221C1043.78 450.551 1039.5 455.041 1034.49 458.681C1029.48 462.321 1023.86 465.071 1017.64 466.921C1011.41 468.781 1004.91 469.711 998.123 469.711C988.263 469.711 979.533 468.091 971.933 464.861C964.333 461.631 957.903 457.101 952.653 451.281C947.393 445.461 943.443 438.511 940.773 430.431C938.103 422.351 936.773 413.461 936.773 403.761C936.773 394.871 938.183 386.421 941.013 378.421C943.843 370.421 947.883 363.391 953.133 357.321C958.383 351.261 964.733 346.451 972.163 342.891C979.593 339.341 988.003 337.561 997.383 337.561C1007.24 337.561 1016.09 339.621 1023.93 343.741C1031.77 347.861 1038.27 353.321 1043.45 360.111C1048.62 366.901 1052.38 374.701 1054.73 383.511C1057.07 392.321 1057.68 401.421 1056.55 410.791H964.413H964.423ZM1028.92 392.611C1028.59 388.251 1027.67 384.041 1026.13 380.001C1024.59 375.961 1022.49 372.451 1019.83 369.451C1017.16 366.461 1013.93 364.041 1010.13 362.181C1006.33 360.321 1002.09 359.391 997.403 359.391C992.713 359.391 988.143 360.241 984.183 361.941C980.223 363.641 976.823 365.981 974.003 368.971C971.173 371.961 968.913 375.481 967.213 379.521C965.513 383.561 964.583 387.931 964.423 392.611H1028.92Z" fill="#434343"/>
<path d="M1098.53 426.071C1099.34 434.151 1102.41 439.811 1107.74 443.041C1113.07 446.281 1119.46 447.891 1126.9 447.891C1129.48 447.891 1132.43 447.691 1135.75 447.281C1139.06 446.881 1142.18 446.111 1145.09 444.981C1148 443.851 1150.38 442.191 1152.24 440.011C1154.1 437.831 1154.94 434.961 1154.79 431.401C1154.63 427.851 1153.34 424.941 1150.91 422.671C1148.49 420.411 1145.37 418.591 1141.58 417.211C1137.78 415.841 1133.46 414.661 1128.61 413.691C1123.76 412.721 1118.83 411.671 1113.82 410.541C1108.64 409.411 1103.67 408.041 1098.91 406.421C1094.14 404.811 1089.86 402.621 1086.06 399.871C1082.26 397.121 1079.23 393.611 1076.97 389.321C1074.7 385.041 1073.57 379.741 1073.57 373.441C1073.57 366.651 1075.23 360.951 1078.54 356.341C1081.85 351.731 1086.06 348.021 1091.15 345.191C1096.24 342.361 1101.9 340.381 1108.12 339.251C1114.34 338.121 1120.28 337.551 1125.94 337.551C1132.4 337.551 1138.59 338.241 1144.49 339.611C1150.39 340.991 1155.72 343.211 1160.49 346.281C1165.26 349.351 1169.22 353.351 1172.37 358.281C1175.52 363.211 1177.5 369.151 1178.31 376.101H1149.45C1148.15 369.471 1145.12 365.031 1140.36 362.761C1135.59 360.501 1130.13 359.361 1123.99 359.361C1122.05 359.361 1119.75 359.521 1117.08 359.841C1114.41 360.171 1111.9 360.771 1109.56 361.661C1107.21 362.551 1105.23 363.841 1103.62 365.541C1102 367.241 1101.2 369.461 1101.2 372.211C1101.2 375.611 1102.37 378.361 1104.72 380.451C1107.06 382.551 1110.13 384.291 1113.93 385.661C1117.73 387.041 1122.05 388.211 1126.9 389.181C1131.75 390.151 1136.76 391.201 1141.93 392.331C1146.94 393.461 1151.87 394.841 1156.72 396.451C1161.57 398.071 1165.89 400.251 1169.69 403.001C1173.49 405.751 1176.56 409.231 1178.9 413.431C1181.24 417.631 1182.42 422.811 1182.42 428.951C1182.42 436.391 1180.72 442.691 1177.33 447.861C1173.93 453.041 1169.53 457.241 1164.11 460.471C1158.69 463.711 1152.67 466.051 1146.04 467.501C1139.41 468.961 1132.86 469.681 1126.4 469.681C1118.48 469.681 1111.16 468.791 1104.46 467.011C1097.75 465.231 1091.93 462.521 1087 458.891C1082.07 455.251 1078.19 450.731 1075.36 445.311C1072.53 439.901 1071.03 433.471 1070.87 426.031H1098.51L1098.53 426.071Z" fill="#434343"/>
<path d="M1204.24 293.19H1231.88V319.38H1204.24V293.19ZM1204.24 340.96H1231.88V466.32H1204.24V340.96Z" fill="#434343"/>
<path d="M1377.86 459.771C1377.86 478.681 1372.56 492.791 1361.98 502.081C1351.39 511.371 1336.16 516.021 1316.27 516.021C1309.96 516.021 1303.62 515.371 1297.24 514.081C1290.85 512.791 1285.03 510.601 1279.78 507.531C1274.53 504.461 1270.12 500.411 1266.57 495.411C1263.01 490.401 1260.91 484.261 1260.27 476.981H1287.91C1288.72 480.861 1290.09 484.011 1292.03 486.441C1293.97 488.861 1296.27 490.761 1298.94 492.141C1301.61 493.511 1304.56 494.401 1307.79 494.811C1311.02 495.211 1314.42 495.421 1317.97 495.421C1329.12 495.421 1337.28 492.671 1342.46 487.181C1347.63 481.681 1350.22 473.761 1350.22 463.421V444.261H1349.74C1345.86 451.211 1340.56 456.631 1333.86 460.511C1327.15 464.391 1319.92 466.331 1312.16 466.331C1302.13 466.331 1293.61 464.591 1286.58 461.121C1279.55 457.651 1273.73 452.881 1269.12 446.811C1264.51 440.751 1261.16 433.761 1259.06 425.841C1256.96 417.921 1255.91 409.431 1255.91 400.381C1255.91 391.981 1257.2 383.971 1259.79 376.371C1262.37 368.771 1266.1 362.111 1270.94 356.371C1275.79 350.631 1281.73 346.061 1288.76 342.671C1295.79 339.281 1303.75 337.581 1312.64 337.581C1320.56 337.581 1327.83 339.241 1334.46 342.551C1341.09 345.871 1346.18 351.081 1349.74 358.191H1350.22V340.971H1377.86V459.781V459.771ZM1316.51 444.501C1322.65 444.501 1327.86 443.251 1332.15 440.741C1336.43 438.241 1339.91 434.921 1342.58 430.801C1345.25 426.681 1347.19 421.991 1348.4 416.741C1349.61 411.491 1350.22 406.191 1350.22 400.861C1350.22 395.531 1349.57 390.351 1348.28 385.341C1346.98 380.331 1345.01 375.881 1342.34 372.001C1339.67 368.121 1336.19 365.051 1331.91 362.791C1327.63 360.531 1322.49 359.391 1316.51 359.391C1310.53 359.391 1305.19 360.691 1300.99 363.271C1296.78 365.861 1293.39 369.211 1290.81 373.331C1288.22 377.451 1286.36 382.141 1285.23 387.391C1284.1 392.651 1283.53 397.861 1283.53 403.031C1283.53 408.201 1284.17 413.261 1285.47 418.181C1286.76 423.111 1288.74 427.521 1291.41 431.401C1294.08 435.281 1297.47 438.431 1301.59 440.861C1305.71 443.281 1310.68 444.501 1316.5 444.501H1316.51Z" fill="#434343"/>
<path d="M1405.73 340.961H1431.92V359.391L1432.4 359.871C1436.6 352.921 1442.1 347.471 1448.89 343.501C1455.68 339.541 1463.2 337.561 1471.44 337.561C1485.18 337.561 1496.01 341.121 1503.93 348.231C1511.85 355.351 1515.81 366.011 1515.81 380.241V466.321H1488.17V387.511C1487.84 377.651 1485.75 370.501 1481.87 366.051C1477.99 361.611 1471.93 359.381 1463.68 359.381C1458.99 359.381 1454.79 360.231 1451.07 361.931C1447.35 363.631 1444.2 365.971 1441.61 368.961C1439.02 371.951 1437 375.471 1435.55 379.511C1434.09 383.551 1433.37 387.841 1433.37 392.361V466.321H1405.73V340.961Z" fill="#434343"/>
<path d="M1730.42 466.32H1704.23V449.35H1703.75C1700.03 456.62 1694.62 461.84 1687.5 464.99C1680.38 468.14 1672.87 469.72 1664.95 469.72C1655.09 469.72 1646.48 467.98 1639.13 464.51C1631.77 461.04 1625.67 456.31 1620.82 450.32C1615.97 444.34 1612.33 437.27 1609.91 429.1C1607.49 420.94 1606.27 412.17 1606.27 402.79C1606.27 391.48 1607.8 381.69 1610.88 373.45C1613.95 365.21 1618.03 358.42 1623.12 353.08C1628.21 347.74 1634.03 343.83 1640.58 341.32C1647.13 338.82 1653.8 337.56 1660.58 337.56C1664.46 337.56 1668.42 337.92 1672.46 338.65C1676.5 339.38 1680.38 340.55 1684.1 342.17C1687.82 343.79 1691.25 345.85 1694.41 348.35C1697.56 350.86 1700.19 353.81 1702.29 357.2H1702.77V293.19H1730.41V466.32H1730.42ZM1633.91 404.97C1633.91 410.3 1634.6 415.56 1635.97 420.73C1637.34 425.91 1639.44 430.51 1642.27 434.55C1645.1 438.59 1648.7 441.82 1653.06 444.25C1657.42 446.67 1662.6 447.89 1668.58 447.89C1674.56 447.89 1680.01 446.6 1684.46 444.01C1688.9 441.43 1692.54 438.03 1695.37 433.83C1698.2 429.63 1700.3 424.9 1701.68 419.64C1703.05 414.39 1703.74 409.01 1703.74 403.52C1703.74 389.62 1700.63 378.79 1694.4 371.03C1688.18 363.27 1679.73 359.39 1669.06 359.39C1662.59 359.39 1657.14 360.72 1652.69 363.39C1648.24 366.06 1644.61 369.54 1641.78 373.82C1638.95 378.1 1636.93 382.95 1635.72 388.37C1634.51 393.79 1633.9 399.32 1633.9 404.98L1633.91 404.97Z" fill="#434343"/>
<path d="M1782.06 410.791C1782.06 415.641 1782.75 420.331 1784.12 424.851C1785.49 429.381 1787.55 433.341 1790.3 436.731C1793.05 440.131 1796.52 442.831 1800.73 444.851C1804.93 446.871 1809.94 447.881 1815.76 447.881C1823.84 447.881 1830.35 446.151 1835.28 442.671C1840.21 439.201 1843.89 433.981 1846.31 427.031H1872.5C1871.05 433.821 1868.54 439.881 1864.98 445.221C1861.42 450.551 1857.14 455.041 1852.13 458.681C1847.12 462.321 1841.5 465.071 1835.28 466.921C1829.05 468.781 1822.55 469.711 1815.76 469.711C1805.9 469.711 1797.17 468.091 1789.57 464.861C1781.97 461.631 1775.54 457.101 1770.29 451.281C1765.03 445.461 1761.08 438.511 1758.41 430.431C1755.74 422.351 1754.41 413.461 1754.41 403.761C1754.41 394.871 1755.82 386.421 1758.65 378.421C1761.48 370.421 1765.52 363.391 1770.77 357.321C1776.02 351.261 1782.37 346.451 1789.8 342.891C1797.23 339.341 1805.64 337.561 1815.02 337.561C1824.88 337.561 1833.73 339.621 1841.57 343.741C1849.41 347.861 1855.91 353.321 1861.09 360.111C1866.26 366.901 1870.02 374.701 1872.37 383.511C1874.71 392.321 1875.32 401.421 1874.19 410.791H1782.05H1782.06ZM1846.56 392.611C1846.23 388.251 1845.31 384.041 1843.77 380.001C1842.23 375.961 1840.13 372.451 1837.47 369.451C1834.8 366.461 1831.57 364.041 1827.77 362.181C1823.97 360.321 1819.73 359.391 1815.04 359.391C1810.35 359.391 1805.78 360.241 1801.82 361.941C1797.86 363.641 1794.46 365.981 1791.64 368.971C1788.81 371.961 1786.55 375.481 1784.85 379.521C1783.15 383.561 1782.22 387.931 1782.06 392.611H1846.56Z" fill="#434343"/>
<path d="M772.195 517.721H848.575C860.855 517.721 870.885 519.501 878.645 523.051C886.405 526.611 892.385 531.051 896.585 536.391C900.785 541.721 903.655 547.541 905.195 553.851C906.735 560.151 907.495 565.971 907.495 571.311C907.495 576.651 906.725 582.431 905.195 588.651C903.655 594.871 900.785 600.651 896.585 605.991C892.375 611.321 886.405 615.731 878.645 619.211C870.885 622.691 860.865 624.421 848.575 624.421H802.505V690.861H772.195V517.731V517.721ZM802.505 599.681H846.875C850.265 599.681 853.745 599.201 857.305 598.231C860.855 597.261 864.135 595.681 867.125 593.501C870.115 591.321 872.535 588.411 874.395 584.771C876.255 581.131 877.185 576.571 877.185 571.071C877.185 565.571 876.375 560.731 874.755 557.011C873.135 553.291 870.955 550.341 868.205 548.161C865.455 545.981 862.305 544.481 858.745 543.671C855.185 542.861 851.385 542.461 847.345 542.461H802.485V599.681H802.505Z" fill="#434343"/>
<path d="M930.055 565.491H956.005V589.741H956.485C957.295 586.341 958.865 583.031 961.215 579.801C963.555 576.571 966.385 573.621 969.705 570.951C973.015 568.281 976.695 566.141 980.735 564.521C984.775 562.911 988.895 562.101 993.105 562.101C996.335 562.101 998.565 562.181 999.775 562.341C1000.98 562.501 1002.23 562.671 1003.53 562.821V589.491C1001.59 589.171 999.615 588.881 997.595 588.641C995.575 588.401 993.595 588.281 991.655 588.281C986.965 588.281 982.565 589.211 978.435 591.071C974.315 592.931 970.715 595.681 967.645 599.311C964.575 602.951 962.145 607.431 960.375 612.771C958.595 618.101 957.705 624.251 957.705 631.201V690.851H930.065V565.491H930.055Z" fill="#434343"/>
<path d="M1068.51 694.25C1058.49 694.25 1049.56 692.59 1041.72 689.28C1033.88 685.97 1027.25 681.4 1021.84 675.58C1016.42 669.76 1012.3 662.81 1009.47 654.73C1006.64 646.65 1005.23 637.76 1005.23 628.06C1005.23 618.36 1006.64 609.71 1009.47 601.63C1012.3 593.55 1016.42 586.6 1021.84 580.78C1027.25 574.96 1033.88 570.39 1041.72 567.08C1049.56 563.77 1058.49 562.11 1068.51 562.11C1078.53 562.11 1087.46 563.77 1095.3 567.08C1103.14 570.4 1109.77 574.96 1115.18 580.78C1120.59 586.6 1124.72 593.55 1127.55 601.63C1130.38 609.72 1131.79 618.52 1131.79 628.06C1131.79 637.6 1130.37 646.65 1127.55 654.73C1124.72 662.81 1120.6 669.76 1115.18 675.58C1109.76 681.4 1103.14 685.97 1095.3 689.28C1087.46 692.59 1078.53 694.25 1068.51 694.25ZM1068.51 672.42C1074.65 672.42 1079.99 671.13 1084.51 668.54C1089.03 665.96 1092.75 662.56 1095.66 658.36C1098.57 654.16 1100.71 649.43 1102.09 644.17C1103.46 638.92 1104.15 633.54 1104.15 628.05C1104.15 622.56 1103.46 617.38 1102.09 612.05C1100.71 606.72 1098.57 601.99 1095.66 597.87C1092.75 593.75 1089.03 590.39 1084.51 587.81C1079.98 585.23 1074.65 583.93 1068.51 583.93C1062.37 583.93 1057.03 585.23 1052.51 587.81C1047.98 590.4 1044.27 593.75 1041.36 597.87C1038.45 601.99 1036.31 606.72 1034.93 612.05C1033.55 617.38 1032.87 622.72 1032.87 628.05C1032.87 633.38 1033.56 638.92 1034.93 644.17C1036.3 649.42 1038.45 654.15 1041.36 658.36C1044.27 662.56 1047.99 665.96 1052.51 668.54C1057.03 671.13 1062.37 672.42 1068.51 672.42Z" fill="#434343"/>
<path d="M1272.92 690.851H1246.73V673.881H1246.25C1242.53 681.151 1237.12 686.371 1230 689.521C1222.88 692.671 1215.37 694.251 1207.45 694.251C1197.59 694.251 1188.98 692.511 1181.63 689.041C1174.27 685.571 1168.17 680.841 1163.32 674.851C1158.47 668.871 1154.83 661.801 1152.41 653.631C1149.99 645.471 1148.77 636.701 1148.77 627.321C1148.77 616.011 1150.3 606.221 1153.38 597.981C1156.45 589.741 1160.53 582.951 1165.62 577.611C1170.71 572.271 1176.53 568.361 1183.08 565.851C1189.63 563.351 1196.3 562.091 1203.08 562.091C1206.96 562.091 1210.92 562.451 1214.96 563.181C1219 563.911 1222.88 565.081 1226.6 566.701C1230.32 568.321 1233.75 570.381 1236.91 572.881C1240.06 575.391 1242.69 578.341 1244.79 581.731H1245.27V517.721H1272.91V690.851H1272.92ZM1176.41 629.501C1176.41 634.831 1177.1 640.091 1178.47 645.261C1179.84 650.441 1181.94 655.041 1184.77 659.081C1187.6 663.121 1191.2 666.351 1195.56 668.781C1199.92 671.201 1205.1 672.421 1211.08 672.421C1217.06 672.421 1222.51 671.131 1226.96 668.541C1231.4 665.961 1235.04 662.561 1237.87 658.361C1240.7 654.161 1242.8 649.431 1244.18 644.171C1245.55 638.921 1246.24 633.541 1246.24 628.051C1246.24 614.151 1243.13 603.321 1236.9 595.561C1230.68 587.801 1222.23 583.921 1211.56 583.921C1205.09 583.921 1199.64 585.251 1195.19 587.921C1190.74 590.591 1187.11 594.071 1184.28 598.351C1181.45 602.631 1179.43 607.481 1178.22 612.901C1177.01 618.321 1176.4 623.851 1176.4 629.511L1176.41 629.501Z" fill="#434343"/>
<path d="M1413.06 690.85H1385.9V673.39H1385.42C1382.03 679.69 1376.97 684.75 1370.27 688.54C1363.56 692.34 1356.73 694.24 1349.78 694.24C1333.29 694.24 1321.37 690.16 1314.01 681.99C1306.65 673.83 1302.98 661.5 1302.98 645.01V565.48H1330.62V642.35C1330.62 653.35 1332.72 661.1 1336.93 665.63C1341.13 670.16 1347.03 672.42 1354.63 672.42C1360.45 672.42 1365.3 671.53 1369.18 669.75C1373.06 667.97 1376.21 665.59 1378.64 662.6C1381.06 659.61 1382.8 656.02 1383.85 651.81C1384.9 647.61 1385.43 643.08 1385.43 638.23V565.49H1413.07V690.85H1413.06Z" fill="#434343"/>
<path d="M1429.55 565.491H1450.4V527.911H1478.04V565.491H1503.02V586.101H1478.04V653.021C1478.04 655.931 1478.16 658.441 1478.4 660.541C1478.64 662.641 1479.21 664.421 1480.1 665.871C1480.99 667.321 1482.32 668.421 1484.1 669.141C1485.88 669.871 1488.3 670.231 1491.37 670.231C1493.31 670.231 1495.25 670.191 1497.19 670.111C1499.13 670.031 1501.07 669.751 1503.01 669.261V690.601C1499.94 690.921 1496.95 691.241 1494.04 691.571C1491.13 691.891 1488.14 692.051 1485.07 692.051C1477.8 692.051 1471.93 691.361 1467.49 689.991C1463.04 688.621 1459.57 686.591 1457.06 683.931C1454.55 681.261 1452.85 677.911 1451.97 673.871C1451.08 669.831 1450.55 665.221 1450.39 660.051V586.091H1429.54V565.481L1429.55 565.491Z" fill="#434343"/>
<path d="M1580.37 694.25C1570.35 694.25 1561.42 692.59 1553.58 689.28C1545.74 685.97 1539.11 681.4 1533.7 675.58C1528.28 669.76 1524.16 662.81 1521.33 654.73C1518.5 646.65 1517.09 637.76 1517.09 628.06C1517.09 618.36 1518.5 609.71 1521.33 601.63C1524.16 593.55 1528.28 586.6 1533.7 580.78C1539.11 574.96 1545.74 570.39 1553.58 567.08C1561.42 563.77 1570.35 562.11 1580.37 562.11C1590.39 562.11 1599.32 563.77 1607.16 567.08C1615 570.4 1621.63 574.96 1627.04 580.78C1632.45 586.6 1636.58 593.55 1639.41 601.63C1642.24 609.72 1643.65 618.52 1643.65 628.06C1643.65 637.6 1642.23 646.65 1639.41 654.73C1636.58 662.81 1632.46 669.76 1627.04 675.58C1621.62 681.4 1615 685.97 1607.16 689.28C1599.32 692.59 1590.39 694.25 1580.37 694.25ZM1580.37 672.42C1586.51 672.42 1591.85 671.13 1596.37 668.54C1600.89 665.96 1604.61 662.56 1607.52 658.36C1610.43 654.16 1612.57 649.43 1613.95 644.17C1615.32 638.92 1616.01 633.54 1616.01 628.05C1616.01 622.56 1615.32 617.38 1613.95 612.05C1612.57 606.72 1610.43 601.99 1607.52 597.87C1604.61 593.75 1600.89 590.39 1596.37 587.81C1591.84 585.23 1586.51 583.93 1580.37 583.93C1574.23 583.93 1568.89 585.23 1564.37 587.81C1559.84 590.4 1556.13 593.75 1553.22 597.87C1550.31 601.99 1548.17 606.72 1546.79 612.05C1545.41 617.38 1544.73 622.72 1544.73 628.05C1544.73 633.38 1545.42 638.92 1546.79 644.17C1548.16 649.42 1550.31 654.15 1553.22 658.36C1556.13 662.56 1559.85 665.96 1564.37 668.54C1568.89 671.13 1574.23 672.42 1580.37 672.42Z" fill="#434343"/>
</svg>
