<?xml version="1.0" encoding="UTF-8"?>
<svg id="Camada_1" data-name="Camada 1" xmlns="http://www.w3.org/2000/svg" viewBox="0 0 2560 1600">
  <defs>
    <style>
      .cls-1 {
        fill: rgba(67, 67, 67, .8);
      }

      .cls-1, .cls-2 {
        opacity: .53;
      }

      .cls-3 {
        fill: none;
        stroke: #fe4b4a;
        stroke-miterlimit: 10;
        stroke-width: .5px;
      }

      .cls-4 {
        fill: #434343;
      }
    </style>
  </defs>
  <path class="cls-1" d="M942.5,638.63l-251.59-145.25c-1.07-.66-2.22-1.2-3.42-1.59-.06-.02-.12-.04-.18-.06-.26-.08-.52-.16-.78-.23-.11-.03-.23-.06-.34-.09-.21-.05-.43-.1-.64-.14-.14-.03-.28-.05-.41-.07-.2-.03-.41-.07-.61-.09-.13-.02-.27-.03-.4-.05-.22-.02-.44-.04-.66-.05-.11,0-.22-.01-.34-.02-.25,0-.5-.01-.75-.01-.08,0-.16,0-.24,0-.28,0-.56.02-.84.04-.05,0-.1,0-.15.01-.3.03-.59.06-.89.1-.04,0-.07.01-.11.02-.3.05-.59.1-.89.16-.04,0-.09.02-.13.03-.28.06-.55.13-.83.21-.08.02-.16.05-.24.07-.23.07-.46.14-.69.22-.16.05-.31.11-.46.17-.15.06-.3.11-.45.18-.74.3-1.46.67-2.14,1.08l-251.78,145.37c-10.67,6.16-10.67,21.56,0,27.72l82.85,47.83c38.64-56.58,103.65-93.72,177.33-93.72s138.57,37.07,177.22,93.56l82.57-47.67c10.67-6.16,10.67-21.56,0-27.72Z"/>
  <line class="cls-3" x1="698.51" y1="-7343.5" x2="698.51" y2="9039.5"/>
  <line class="cls-3" x1="666.5" y1="-7343.5" x2="666.5" y2="9039.5"/>
  <path class="cls-1" d="M666.37,850.05c-.01-.06-.03-.12-.04-.18-.06-.27-.12-.53-.19-.79-.03-.11-.06-.22-.1-.34-.06-.21-.13-.42-.2-.63-.04-.13-.09-.26-.14-.39-.07-.2-.15-.39-.23-.58-.05-.12-.11-.25-.16-.37-.09-.2-.19-.4-.28-.6-.05-.1-.1-.2-.15-.3-.12-.22-.24-.44-.36-.65-.04-.07-.08-.14-.12-.21-.14-.24-.3-.47-.45-.7-.03-.04-.06-.08-.09-.12-.17-.24-.35-.48-.54-.72-.02-.03-.04-.06-.07-.08-.19-.24-.38-.47-.59-.69-.03-.03-.06-.06-.09-.1-.19-.21-.39-.42-.59-.62-.06-.06-.12-.11-.18-.17-.18-.17-.35-.33-.54-.49-.12-.11-.25-.21-.38-.31-.13-.1-.25-.21-.38-.31-.63-.49-1.3-.93-2-1.32l-251.78-145.37c-10.67-6.16-24,1.54-24.01,13.86v290.51c-.03,1.26.07,2.52.33,3.75.01.06.03.12.04.18.06.26.12.53.19.79.03.11.06.23.1.34.06.21.13.42.2.63.05.13.09.26.14.39.07.19.15.39.23.58.05.13.11.25.16.37.09.2.18.4.28.6.05.1.1.2.15.3.12.22.24.44.36.65.04.07.08.14.12.21.14.24.3.47.45.7.03.04.06.09.09.13.17.24.35.48.53.72.02.03.04.06.07.08.19.23.38.47.59.69.03.03.06.07.09.1.19.21.39.41.59.61.06.06.12.11.18.17.18.17.35.33.54.49.12.11.25.21.38.32.13.1.25.21.38.31.63.49,1.3.93,2,1.32l251.78,145.37c10.67,6.16,24.01-1.54,24.01-13.86v-290.51c.03-1.26-.07-2.52-.33-3.76Z"/>
  <line class="cls-3" x1="-6450.7" y1="4971.83" x2="7737.39" y2="-3219.67"/>
  <line class="cls-3" x1="-6466.71" y1="4944.11" x2="7721.39" y2="-3247.39"/>
  <line class="cls-3" x1="-6450.7" y1="4953.51" x2="7737.39" y2="-3237.99"/>
  <path class="cls-1" d="M978.58,1009.59s.06-.07.09-.1c.2-.23.4-.46.58-.69.02-.03.05-.06.07-.09.19-.24.36-.48.53-.72.03-.04.06-.08.09-.13.16-.23.31-.46.45-.7.04-.07.08-.14.12-.21.13-.21.25-.43.36-.65.05-.1.1-.2.15-.3.1-.2.19-.4.28-.6.06-.12.11-.25.16-.37.08-.19.15-.38.23-.58.05-.13.1-.26.14-.39.07-.21.14-.42.2-.63.03-.11.07-.23.1-.34.07-.26.13-.53.19-.79.01-.06.03-.12.04-.18.26-1.24.36-2.5.33-3.75v-290.51c0-12.32-13.34-20.02-24-13.86l-251.78,145.37c-.7.39-1.37.83-2,1.32-.13.1-.25.2-.38.3-.13.11-.26.21-.38.32-.18.16-.36.32-.54.49-.06.06-.12.11-.18.17-.2.2-.4.41-.59.61-.03.03-.06.07-.09.1-.2.23-.4.46-.58.69-.02.03-.05.06-.07.09-.19.24-.36.47-.53.72-.03.04-.06.08-.09.13-.16.23-.31.46-.45.7-.04.07-.08.14-.12.21-.13.21-.25.43-.36.65-.05.1-.1.2-.15.3-.1.2-.19.4-.28.6-.06.12-.11.25-.16.37-.08.19-.15.38-.23.58-.05.13-.1.26-.14.39-.07.21-.14.42-.2.63-.03.11-.07.23-.1.34-.07.26-.13.53-.19.79-.01.06-.03.12-.04.18-.26,1.24-.36,2.49-.33,3.75v290.51c0,12.32,13.34,20.02,24,13.86l251.78-145.37c.7-.39,1.37-.83,2-1.32.13-.1.25-.2.38-.31.13-.1.26-.21.38-.32.18-.16.36-.32.54-.49.06-.06.12-.11.18-.17.2-.2.4-.4.59-.61Z"/>
  <line class="cls-3" x1="7816.12" y1="4971.83" x2="-6371.97" y2="-3219.67"/>
  <line class="cls-3" x1="7832.13" y1="4944.11" x2="-6355.97" y2="-3247.39"/>
  <line class="cls-3" x1="7816.12" y1="4953.54" x2="-6371.97" y2="-3237.96"/>
  <line class="cls-3" x1="-7507.26" y1="652.47" x2="8875.74" y2="652.47"/>
  <line class="cls-3" x1="-7507.26" y1="620.45" x2="8875.74" y2="620.45"/>
  <line class="cls-3" x1="682.71" y1="-7343.5" x2="682.71" y2="9039.5"/>
  <circle class="cls-3" cx="682.71" cy="835.06" r="214.61"/>
  <circle class="cls-3" cx="429.94" cy="652.57" r="15.76"/>
  <circle class="cls-3" cx="682.56" cy="506.81" r="15.76"/>
  <circle class="cls-3" cx="682.63" cy="636.47" r="15.76"/>
  <line class="cls-3" x1="-7507.26" y1="684.41" x2="8875.74" y2="684.41"/>
  <circle class="cls-3" cx="682.63" cy="668.41" r="15.76"/>
  <line class="cls-3" x1="-7507.26" y1="1081.58" x2="8875.74" y2="1081.58"/>
  <circle class="cls-3" cx="682.63" cy="1065.59" r="15.76"/>
  <circle class="cls-3" cx="682.63" cy="834.59" r="15.76"/>
  <line class="cls-3" x1="1054.37" y1="-7391" x2="1054.37" y2="8992"/>
  <line class="cls-3" x1="-6911" y1="1049.64" x2="9472" y2="1049.64"/>
  <line class="cls-3" x1="-6911" y1="490.97" x2="9472" y2="490.97"/>
  <line class="cls-3" x1="-6911" y1="522.64" x2="9472" y2="522.64"/>
  <circle class="cls-3" cx="682.56" cy="538.33" r="15.76"/>
  <line class="cls-3" x1="-6911" y1="554.16" x2="9472" y2="554.16"/>
  <g class="cls-2">
    <g>
      <g>
        <path class="cls-4" d="M1054.48,555.05h78.61v14.69h-30.87v82.42h-17v-82.42h-30.74v-14.69Z"/>
        <path class="cls-4" d="M1139.2,621.01c0,2.72.38,5.35,1.16,7.89.77,2.54,1.92,4.76,3.47,6.66,1.54,1.9,3.49,3.42,5.85,4.56,2.36,1.13,5.17,1.7,8.43,1.7,4.53,0,8.18-.97,10.95-2.92,2.76-1.95,4.83-4.87,6.19-8.77h14.69c-.82,3.81-2.22,7.21-4.22,10.2-2,2.99-4.4,5.51-7.21,7.55-2.81,2.04-5.96,3.58-9.45,4.62-3.49,1.04-7.14,1.56-10.95,1.56-5.53,0-10.43-.91-14.69-2.72-4.26-1.81-7.87-4.35-10.81-7.62-2.95-3.26-5.17-7.16-6.66-11.7-1.5-4.53-2.24-9.52-2.24-14.96,0-4.99.79-9.72,2.38-14.21,1.58-4.49,3.85-8.43,6.8-11.83,2.95-3.4,6.5-6.1,10.68-8.09,4.17-1.99,8.88-2.99,14.14-2.99,5.53,0,10.49,1.16,14.89,3.47,4.4,2.31,8.05,5.37,10.95,9.18,2.9,3.81,5.01,8.18,6.32,13.12,1.31,4.94,1.65,10.04,1.02,15.3h-51.68ZM1175.38,610.81c-.18-2.45-.7-4.8-1.56-7.07-.86-2.27-2.04-4.24-3.54-5.92-1.5-1.68-3.31-3.04-5.44-4.08-2.13-1.04-4.51-1.56-7.14-1.56s-5.19.48-7.41,1.43c-2.22.95-4.13,2.27-5.71,3.94-1.59,1.68-2.86,3.65-3.81,5.92-.95,2.27-1.48,4.72-1.56,7.34h36.18Z"/>
        <path class="cls-4" d="M1250.18,605.37c-.64-4.35-2.38-7.64-5.24-9.86-2.86-2.22-6.46-3.33-10.81-3.33-2,0-4.13.34-6.39,1.02-2.27.68-4.35,1.95-6.26,3.81-1.9,1.86-3.49,4.44-4.76,7.75-1.27,3.31-1.9,7.64-1.9,12.99,0,2.9.34,5.8,1.02,8.7.68,2.9,1.77,5.49,3.26,7.75,1.5,2.27,3.42,4.1,5.78,5.51,2.36,1.41,5.21,2.11,8.57,2.11,4.53,0,8.27-1.4,11.22-4.22,2.95-2.81,4.78-6.75,5.51-11.83h15.5c-1.45,9.16-4.92,16.16-10.4,21.01-5.49,4.85-12.76,7.28-21.83,7.28-5.53,0-10.4-.93-14.62-2.79-4.22-1.86-7.78-4.4-10.68-7.62-2.9-3.22-5.1-7.05-6.6-11.49-1.5-4.44-2.24-9.25-2.24-14.42s.72-10.2,2.18-14.82c1.45-4.62,3.63-8.64,6.53-12.04,2.9-3.4,6.5-6.07,10.81-8.02,4.3-1.95,9.36-2.92,15.16-2.92,4.08,0,7.96.52,11.63,1.56,3.67,1.04,6.94,2.61,9.79,4.69,2.86,2.09,5.19,4.72,7,7.89,1.81,3.17,2.9,6.94,3.26,11.29h-15.5Z"/>
        <path class="cls-4" d="M1278.33,581.84h14.69v10.34l.27.27c2.36-3.9,5.44-6.96,9.25-9.18,3.81-2.22,8.02-3.33,12.65-3.33,7.71,0,13.78,2,18.22,5.98,4.44,3.99,6.66,9.97,6.66,17.95v48.28h-15.5v-44.2c-.18-5.53-1.36-9.54-3.54-12.04-2.18-2.49-5.58-3.74-10.2-3.74-2.63,0-4.99.48-7.07,1.43-2.09.95-3.85,2.27-5.3,3.94-1.45,1.68-2.58,3.65-3.4,5.92-.82,2.27-1.22,4.67-1.22,7.21v41.48h-15.5v-70.31Z"/>
        <path class="cls-4" d="M1388.63,654.05c-5.62,0-10.63-.93-15.03-2.79-4.4-1.86-8.12-4.42-11.15-7.68-3.04-3.26-5.35-7.16-6.94-11.7-1.59-4.53-2.38-9.52-2.38-14.96s.79-10.29,2.38-14.82c1.58-4.53,3.9-8.43,6.94-11.7,3.04-3.26,6.75-5.82,11.15-7.68,4.4-1.86,9.41-2.79,15.03-2.79s10.63.93,15.03,2.79c4.4,1.86,8.11,4.42,11.15,7.68,3.04,3.26,5.35,7.16,6.94,11.7,1.58,4.53,2.38,9.48,2.38,14.82s-.79,10.43-2.38,14.96c-1.59,4.53-3.9,8.43-6.94,11.7-3.04,3.26-6.76,5.83-11.15,7.68-4.4,1.86-9.41,2.79-15.03,2.79ZM1388.63,641.81c3.45,0,6.44-.72,8.98-2.18,2.54-1.45,4.62-3.35,6.26-5.71,1.63-2.36,2.83-5.01,3.6-7.96.77-2.95,1.16-5.96,1.16-9.04s-.39-5.98-1.16-8.98c-.77-2.99-1.97-5.64-3.6-7.96-1.63-2.31-3.72-4.19-6.26-5.64-2.54-1.45-5.53-2.18-8.98-2.18s-6.44.73-8.98,2.18c-2.54,1.45-4.62,3.33-6.26,5.64-1.63,2.31-2.83,4.96-3.6,7.96-.77,2.99-1.16,5.98-1.16,8.98s.38,6.1,1.16,9.04c.77,2.95,1.97,5.6,3.6,7.96,1.63,2.36,3.72,4.26,6.26,5.71,2.54,1.45,5.53,2.18,8.98,2.18Z"/>
        <path class="cls-4" d="M1437.45,555.05h15.5v97.1h-15.5v-97.1Z"/>
        <path class="cls-4" d="M1502.05,654.05c-5.62,0-10.63-.93-15.03-2.79-4.4-1.86-8.12-4.42-11.15-7.68-3.04-3.26-5.35-7.16-6.94-11.7-1.59-4.53-2.38-9.52-2.38-14.96s.79-10.29,2.38-14.82c1.58-4.53,3.9-8.43,6.94-11.7,3.04-3.26,6.75-5.82,11.15-7.68,4.4-1.86,9.41-2.79,15.03-2.79s10.63.93,15.03,2.79c4.4,1.86,8.11,4.42,11.15,7.68,3.04,3.26,5.35,7.16,6.94,11.7,1.58,4.53,2.38,9.48,2.38,14.82s-.79,10.43-2.38,14.96c-1.59,4.53-3.9,8.43-6.94,11.7-3.04,3.26-6.76,5.83-11.15,7.68-4.4,1.86-9.41,2.79-15.03,2.79ZM1502.05,641.81c3.45,0,6.44-.72,8.98-2.18,2.54-1.45,4.62-3.35,6.26-5.71,1.63-2.36,2.83-5.01,3.6-7.96.77-2.95,1.16-5.96,1.16-9.04s-.39-5.98-1.16-8.98c-.77-2.99-1.97-5.64-3.6-7.96-1.63-2.31-3.72-4.19-6.26-5.64-2.54-1.45-5.53-2.18-8.98-2.18s-6.44.73-8.98,2.18c-2.54,1.45-4.62,3.33-6.26,5.64-1.63,2.31-2.83,4.96-3.6,7.96-.77,2.99-1.16,5.98-1.16,8.98s.38,6.1,1.16,9.04c.77,2.95,1.97,5.6,3.6,7.96,1.63,2.36,3.72,4.26,6.26,5.71,2.54,1.45,5.53,2.18,8.98,2.18Z"/>
        <path class="cls-4" d="M1615.47,648.48c0,10.61-2.97,18.52-8.91,23.73-5.94,5.21-14.48,7.82-25.64,7.82-3.54,0-7.1-.36-10.68-1.09-3.58-.73-6.85-1.95-9.79-3.67-2.95-1.72-5.42-3.99-7.41-6.8-2-2.81-3.17-6.26-3.54-10.34h15.5c.45,2.18,1.22,3.94,2.31,5.3,1.09,1.36,2.38,2.42,3.88,3.2,1.5.77,3.15,1.27,4.96,1.5,1.81.23,3.72.34,5.71.34,6.26,0,10.83-1.54,13.74-4.62,2.9-3.08,4.35-7.53,4.35-13.33v-10.74h-.27c-2.18,3.9-5.15,6.94-8.91,9.11-3.76,2.18-7.82,3.26-12.17,3.26-5.62,0-10.4-.97-14.35-2.92-3.94-1.95-7.21-4.62-9.79-8.02-2.58-3.4-4.47-7.32-5.64-11.76-1.18-4.44-1.77-9.2-1.77-14.28,0-4.71.72-9.2,2.18-13.46,1.45-4.26,3.54-8,6.26-11.22,2.72-3.22,6.05-5.78,10-7.68,3.94-1.9,8.41-2.86,13.4-2.86,4.44,0,8.52.93,12.24,2.79,3.72,1.86,6.57,4.78,8.57,8.77h.27v-9.66h15.5v66.64ZM1581.06,639.91c3.45,0,6.37-.7,8.77-2.11,2.4-1.4,4.35-3.26,5.85-5.58s2.58-4.94,3.26-7.89c.68-2.95,1.02-5.92,1.02-8.91s-.36-5.89-1.09-8.7c-.73-2.81-1.84-5.3-3.33-7.48-1.5-2.18-3.45-3.9-5.85-5.17-2.4-1.27-5.28-1.9-8.64-1.9s-6.35.73-8.7,2.18c-2.36,1.45-4.26,3.33-5.71,5.64-1.45,2.31-2.49,4.94-3.13,7.89-.63,2.95-.95,5.87-.95,8.77s.36,5.74,1.09,8.5c.72,2.77,1.84,5.24,3.33,7.41,1.5,2.18,3.4,3.94,5.71,5.3,2.31,1.36,5.1,2.04,8.36,2.04Z"/>
        <path class="cls-4" d="M1631.52,555.05h15.5v14.69h-15.5v-14.69ZM1631.52,581.84h15.5v70.31h-15.5v-70.31Z"/>
        <path class="cls-4" d="M1722.77,636.51c0,1.9.25,3.26.75,4.08.5.82,1.47,1.22,2.92,1.22h1.63c.63,0,1.36-.09,2.18-.27v10.74c-.54.18-1.25.38-2.11.61-.86.23-1.75.43-2.65.61-.91.18-1.81.32-2.72.41-.91.09-1.68.14-2.31.14-3.17,0-5.8-.64-7.89-1.9-2.09-1.27-3.45-3.49-4.08-6.66-3.08,2.99-6.87,5.17-11.36,6.53-4.49,1.36-8.82,2.04-12.99,2.04-3.17,0-6.21-.43-9.11-1.29-2.9-.86-5.46-2.13-7.68-3.81-2.22-1.68-3.99-3.81-5.3-6.39-1.32-2.58-1.97-5.6-1.97-9.04,0-4.35.79-7.89,2.38-10.61,1.58-2.72,3.67-4.85,6.26-6.39,2.58-1.54,5.48-2.65,8.7-3.33,3.22-.68,6.46-1.2,9.72-1.56,2.81-.54,5.48-.93,8.02-1.16,2.54-.23,4.78-.61,6.73-1.16,1.95-.54,3.49-1.38,4.62-2.52s1.7-2.83,1.7-5.1c0-1.99-.48-3.62-1.43-4.9-.95-1.27-2.13-2.24-3.54-2.92-1.41-.68-2.97-1.13-4.69-1.36-1.72-.23-3.36-.34-4.9-.34-4.35,0-7.94.91-10.74,2.72-2.81,1.81-4.4,4.62-4.76,8.43h-15.5c.27-4.53,1.36-8.3,3.26-11.29,1.9-2.99,4.33-5.39,7.28-7.21,2.95-1.81,6.28-3.08,10-3.81,3.72-.72,7.53-1.09,11.42-1.09,3.44,0,6.84.36,10.2,1.09,3.35.73,6.37,1.9,9.04,3.54,2.67,1.63,4.83,3.74,6.46,6.32,1.63,2.58,2.45,5.74,2.45,9.45v36.18ZM1707.27,616.93c-2.36,1.54-5.26,2.47-8.7,2.79-3.45.32-6.89.79-10.34,1.43-1.63.27-3.22.66-4.76,1.16-1.54.5-2.9,1.18-4.08,2.04-1.18.86-2.11,2-2.79,3.4-.68,1.41-1.02,3.11-1.02,5.1,0,1.72.5,3.17,1.5,4.35,1,1.18,2.2,2.11,3.6,2.79,1.4.68,2.95,1.16,4.62,1.43,1.68.27,3.2.41,4.56.41,1.72,0,3.58-.23,5.58-.68,1.99-.45,3.88-1.22,5.64-2.31,1.77-1.09,3.24-2.47,4.42-4.15,1.18-1.68,1.77-3.74,1.77-6.19v-11.56Z"/>
        <path class="cls-4" d="M1789.41,621.01c0,2.72.38,5.35,1.16,7.89.77,2.54,1.93,4.76,3.47,6.66,1.54,1.9,3.49,3.42,5.85,4.56,2.36,1.13,5.17,1.7,8.43,1.7,4.53,0,8.18-.97,10.95-2.92,2.76-1.95,4.83-4.87,6.19-8.77h14.69c-.82,3.81-2.22,7.21-4.22,10.2-2,2.99-4.4,5.51-7.21,7.55-2.81,2.04-5.96,3.58-9.45,4.62-3.49,1.04-7.14,1.56-10.95,1.56-5.53,0-10.43-.91-14.69-2.72-4.26-1.81-7.87-4.35-10.81-7.62-2.95-3.26-5.17-7.16-6.66-11.7-1.5-4.53-2.24-9.52-2.24-14.96,0-4.99.79-9.72,2.38-14.21,1.59-4.49,3.85-8.43,6.8-11.83,2.94-3.4,6.5-6.1,10.68-8.09,4.17-1.99,8.88-2.99,14.14-2.99,5.53,0,10.49,1.16,14.89,3.47,4.4,2.31,8.04,5.37,10.95,9.18,2.9,3.81,5.01,8.18,6.32,13.12,1.31,4.94,1.65,10.04,1.02,15.3h-51.68ZM1825.59,610.81c-.18-2.45-.7-4.8-1.56-7.07-.86-2.27-2.04-4.24-3.54-5.92-1.5-1.68-3.31-3.04-5.44-4.08-2.13-1.04-4.51-1.56-7.14-1.56s-5.19.48-7.41,1.43c-2.22.95-4.13,2.27-5.71,3.94-1.59,1.68-2.86,3.65-3.81,5.92-.95,2.27-1.47,4.72-1.56,7.34h36.18Z"/>
        <path class="cls-4" d="M1852.92,581.84h14.69v9.79h.41c1.18-1.72,2.45-3.31,3.81-4.76,1.36-1.45,2.88-2.67,4.56-3.67,1.68-1,3.6-1.79,5.78-2.38,2.18-.59,4.67-.88,7.48-.88,4.26,0,8.23.95,11.9,2.86,3.67,1.9,6.28,4.85,7.82,8.84,2.63-3.62,5.67-6.48,9.11-8.57,3.44-2.08,7.75-3.13,12.92-3.13,7.43,0,13.21,1.81,17.34,5.44,4.12,3.63,6.19,9.7,6.19,18.22v48.55h-15.5v-41.07c0-2.81-.09-5.37-.27-7.68-.18-2.31-.7-4.31-1.56-5.98-.86-1.68-2.16-2.97-3.88-3.88-1.72-.91-4.08-1.36-7.07-1.36-5.26,0-9.07,1.63-11.42,4.9-2.36,3.26-3.54,7.89-3.54,13.87v41.21h-15.5v-45.15c0-4.9-.88-8.59-2.65-11.08-1.77-2.49-5.01-3.74-9.72-3.74-2,0-3.92.41-5.78,1.22-1.86.82-3.49,2-4.9,3.54-1.41,1.54-2.54,3.45-3.4,5.71-.86,2.27-1.29,4.85-1.29,7.75v41.75h-15.5v-70.31Z"/>
      </g>
      <g>
        <path class="cls-4" d="M1054.36,684.16h71.77c13.25,0,24.73,2.27,34.43,6.79,9.7,4.53,17.62,10.71,23.76,18.55,6.14,7.84,10.71,17.02,13.7,27.52,2.99,10.51,4.49,21.74,4.49,33.7s-1.5,23.2-4.49,33.7c-2.99,10.51-7.56,19.68-13.7,27.52-6.15,7.84-14.06,14.03-23.76,18.55-9.7,4.53-21.18,6.79-34.43,6.79h-71.77v-173.13ZM1084.67,832.56h29.82c11.8,0,21.46-1.58,28.98-4.73,7.52-3.15,13.42-7.52,17.7-13.09,4.28-5.58,7.19-12.12,8.73-19.64,1.53-7.52,2.3-15.64,2.3-24.37s-.77-16.85-2.3-24.37c-1.54-7.52-4.45-14.06-8.73-19.64-4.29-5.58-10.19-9.94-17.7-13.09-7.52-3.15-17.18-4.73-28.98-4.73h-29.82v123.66Z"/>
        <path class="cls-4" d="M1247.12,801.77c0,4.85.69,9.54,2.06,14.06,1.37,4.53,3.43,8.49,6.18,11.88,2.75,3.4,6.22,6.1,10.43,8.12,4.2,2.02,9.21,3.03,15.03,3.03,8.08,0,14.59-1.73,19.52-5.21,4.93-3.47,8.61-8.69,11.03-15.64h26.19c-1.45,6.79-3.96,12.85-7.52,18.19-3.56,5.33-7.84,9.82-12.85,13.46-5.01,3.64-10.63,6.39-16.85,8.24-6.23,1.86-12.73,2.79-19.52,2.79-9.86,0-18.59-1.62-26.19-4.85-7.6-3.23-14.03-7.76-19.28-13.58-5.26-5.82-9.21-12.77-11.88-20.85-2.67-8.08-4-16.97-4-26.67,0-8.89,1.41-17.34,4.24-25.34,2.83-8,6.87-15.03,12.12-21.1,5.25-6.06,11.6-10.87,19.03-14.43,7.43-3.55,15.84-5.33,25.22-5.33,9.86,0,18.71,2.06,26.55,6.18,7.84,4.12,14.34,9.58,19.52,16.37,5.17,6.79,8.93,14.59,11.28,23.4,2.34,8.81,2.95,17.91,1.82,27.28h-92.14ZM1311.62,783.58c-.33-4.36-1.25-8.57-2.79-12.61-1.54-4.04-3.64-7.55-6.3-10.55-2.67-2.99-5.9-5.41-9.7-7.27-3.8-1.86-8.04-2.79-12.73-2.79s-9.26.85-13.22,2.55c-3.96,1.7-7.36,4.04-10.18,7.03-2.83,2.99-5.09,6.51-6.79,10.55-1.7,4.04-2.63,8.41-2.79,13.09h64.5Z"/>
        <path class="cls-4" d="M1381.22,817.04c.81,8.08,3.88,13.74,9.21,16.97,5.33,3.24,11.72,4.85,19.16,4.85,2.58,0,5.53-.2,8.85-.61,3.31-.4,6.43-1.17,9.34-2.3,2.91-1.13,5.29-2.79,7.15-4.97,1.86-2.18,2.7-5.05,2.55-8.61-.16-3.55-1.45-6.46-3.88-8.73-2.42-2.26-5.54-4.08-9.33-5.46-3.8-1.37-8.12-2.55-12.97-3.52-4.85-.97-9.78-2.02-14.79-3.15-5.18-1.13-10.15-2.5-14.91-4.12-4.77-1.61-9.05-3.8-12.85-6.55-3.8-2.75-6.83-6.26-9.09-10.55-2.27-4.28-3.4-9.58-3.4-15.88,0-6.79,1.66-12.49,4.97-17.1,3.31-4.61,7.52-8.32,12.61-11.15,5.09-2.83,10.75-4.81,16.97-5.94,6.22-1.13,12.16-1.7,17.82-1.7,6.46,0,12.65.69,18.55,2.06,5.9,1.38,11.23,3.6,16,6.67,4.77,3.07,8.73,7.07,11.88,12,3.15,4.93,5.13,10.87,5.94,17.82h-28.86c-1.3-6.63-4.33-11.07-9.09-13.34-4.77-2.26-10.23-3.4-16.37-3.4-1.94,0-4.24.16-6.91.48-2.67.33-5.18.93-7.52,1.82-2.35.89-4.33,2.18-5.94,3.88-1.62,1.7-2.42,3.92-2.42,6.67,0,3.4,1.17,6.15,3.52,8.24,2.34,2.1,5.41,3.84,9.21,5.21,3.8,1.38,8.12,2.55,12.97,3.52s9.86,2.02,15.03,3.15c5.01,1.13,9.94,2.51,14.79,4.12,4.85,1.62,9.17,3.8,12.97,6.55,3.8,2.75,6.87,6.23,9.21,10.43,2.34,4.2,3.52,9.38,3.52,15.52,0,7.44-1.7,13.74-5.09,18.91-3.4,5.18-7.8,9.38-13.22,12.61-5.42,3.24-11.44,5.58-18.07,7.03-6.63,1.46-13.18,2.18-19.64,2.18-7.92,0-15.24-.89-21.94-2.67-6.71-1.78-12.53-4.49-17.46-8.12-4.93-3.64-8.81-8.16-11.64-13.58-2.83-5.41-4.33-11.84-4.49-19.28h27.64Z"/>
        <path class="cls-4" d="M1486.94,684.16h27.64v26.19h-27.64v-26.19ZM1486.94,731.93h27.64v125.36h-27.64v-125.36Z"/>
        <path class="cls-4" d="M1660.55,850.75c0,18.91-5.3,33.02-15.88,42.31-10.59,9.29-25.82,13.94-45.71,13.94-6.31,0-12.65-.65-19.03-1.94-6.39-1.29-12.21-3.48-17.46-6.55-5.25-3.07-9.66-7.12-13.21-12.12-3.56-5.01-5.66-11.15-6.3-18.43h27.64c.81,3.88,2.18,7.03,4.12,9.46,1.94,2.42,4.24,4.32,6.91,5.7,2.67,1.37,5.62,2.26,8.85,2.67,3.23.4,6.63.61,10.18.61,11.15,0,19.31-2.75,24.49-8.24,5.17-5.5,7.76-13.42,7.76-23.76v-19.16h-.48c-3.88,6.95-9.18,12.37-15.88,16.25-6.71,3.88-13.94,5.82-21.7,5.82-10.03,0-18.55-1.74-25.58-5.21-7.03-3.47-12.85-8.24-17.46-14.31-4.61-6.06-7.96-13.05-10.06-20.97-2.1-7.92-3.15-16.41-3.15-25.46,0-8.4,1.29-16.41,3.88-24.01,2.58-7.6,6.31-14.26,11.15-20,4.85-5.74,10.79-10.31,17.82-13.7,7.03-3.39,14.99-5.09,23.88-5.09,7.92,0,15.19,1.66,21.82,4.97,6.63,3.32,11.72,8.53,15.28,15.64h.48v-17.22h27.64v118.81ZM1599.2,835.47c6.14,0,11.35-1.25,15.64-3.76,4.28-2.5,7.76-5.82,10.43-9.94,2.67-4.12,4.61-8.81,5.82-14.06,1.21-5.25,1.82-10.55,1.82-15.88s-.65-10.51-1.94-15.52c-1.3-5.01-3.27-9.46-5.94-13.34-2.67-3.88-6.15-6.95-10.43-9.21-4.28-2.26-9.42-3.4-15.4-3.4s-11.32,1.3-15.52,3.88c-4.21,2.59-7.6,5.94-10.18,10.06-2.59,4.12-4.45,8.81-5.58,14.06-1.13,5.26-1.7,10.47-1.7,15.64s.64,10.23,1.94,15.15c1.29,4.93,3.27,9.34,5.94,13.22,2.67,3.88,6.06,7.03,10.18,9.46,4.12,2.42,9.09,3.64,14.91,3.64Z"/>
        <path class="cls-4" d="M1688.43,731.93h26.19v18.43l.48.48c4.2-6.95,9.7-12.4,16.49-16.37,6.79-3.96,14.31-5.94,22.55-5.94,13.74,0,24.57,3.56,32.49,10.67,7.92,7.12,11.88,17.78,11.88,32.01v86.08h-27.64v-78.81c-.33-9.86-2.42-17.01-6.3-21.46-3.88-4.44-9.94-6.67-18.19-6.67-4.69,0-8.89.85-12.61,2.55-3.72,1.7-6.87,4.04-9.46,7.03-2.59,2.99-4.61,6.51-6.06,10.55-1.46,4.04-2.18,8.33-2.18,12.85v73.96h-27.64v-125.36Z"/>
        <path class="cls-4" d="M2013.11,857.29h-26.19v-16.97h-.48c-3.72,7.27-9.13,12.49-16.25,15.64-7.12,3.15-14.63,4.73-22.55,4.73-9.86,0-18.47-1.74-25.82-5.21-7.36-3.47-13.46-8.2-18.31-14.19-4.85-5.98-8.49-13.05-10.91-21.22-2.42-8.16-3.64-16.93-3.64-26.31,0-11.31,1.53-21.1,4.61-29.34,3.07-8.24,7.15-15.03,12.24-20.37,5.09-5.34,10.91-9.25,17.46-11.76,6.55-2.5,13.22-3.76,20-3.76,3.88,0,7.84.36,11.88,1.09,4.04.73,7.92,1.9,11.64,3.52,3.72,1.62,7.15,3.68,10.31,6.18,3.15,2.51,5.78,5.46,7.88,8.85h.48v-64.01h27.64v173.13ZM1916.6,795.95c0,5.33.69,10.59,2.06,15.76,1.37,5.18,3.47,9.78,6.3,13.82,2.83,4.04,6.43,7.27,10.79,9.7,4.36,2.42,9.54,3.64,15.52,3.64s11.43-1.29,15.88-3.88c4.44-2.58,8.08-5.98,10.91-10.18,2.83-4.2,4.93-8.93,6.31-14.19,1.37-5.25,2.06-10.63,2.06-16.12,0-13.9-3.11-24.73-9.34-32.49-6.22-7.76-14.67-11.64-25.34-11.64-6.47,0-11.92,1.33-16.37,4-4.45,2.67-8.08,6.15-10.91,10.43-2.83,4.28-4.85,9.13-6.06,14.55-1.21,5.42-1.82,10.95-1.82,16.61Z"/>
        <path class="cls-4" d="M2064.75,801.77c0,4.85.69,9.54,2.06,14.06,1.37,4.53,3.43,8.49,6.18,11.88,2.75,3.4,6.22,6.1,10.43,8.12,4.2,2.02,9.21,3.03,15.03,3.03,8.08,0,14.59-1.73,19.52-5.21,4.93-3.47,8.61-8.69,11.03-15.64h26.19c-1.45,6.79-3.96,12.85-7.52,18.19-3.56,5.33-7.84,9.82-12.85,13.46-5.01,3.64-10.63,6.39-16.85,8.24-6.23,1.86-12.73,2.79-19.52,2.79-9.86,0-18.59-1.62-26.19-4.85-7.6-3.23-14.03-7.76-19.28-13.58-5.26-5.82-9.21-12.77-11.88-20.85-2.67-8.08-4-16.97-4-26.67,0-8.89,1.41-17.34,4.24-25.34,2.83-8,6.87-15.03,12.12-21.1,5.25-6.06,11.6-10.87,19.03-14.43,7.43-3.55,15.84-5.33,25.22-5.33,9.86,0,18.71,2.06,26.55,6.18,7.84,4.12,14.34,9.58,19.52,16.37,5.17,6.79,8.93,14.59,11.28,23.4,2.34,8.81,2.95,17.91,1.82,27.28h-92.14ZM2129.25,783.58c-.33-4.36-1.25-8.57-2.79-12.61-1.54-4.04-3.64-7.55-6.3-10.55-2.67-2.99-5.9-5.41-9.7-7.27-3.8-1.86-8.04-2.79-12.73-2.79s-9.26.85-13.22,2.55c-3.96,1.7-7.36,4.04-10.18,7.03-2.83,2.99-5.09,6.51-6.79,10.55-1.7,4.04-2.63,8.41-2.79,13.09h64.5Z"/>
      </g>
      <g>
        <path class="cls-4" d="M1054.89,908.69h76.38c12.28,0,22.31,1.78,30.07,5.33,7.76,3.56,13.74,8,17.94,13.34,4.2,5.33,7.07,11.15,8.61,17.46,1.54,6.3,2.3,12.12,2.3,17.46s-.77,11.12-2.3,17.34c-1.54,6.22-4.41,12-8.61,17.34-4.21,5.33-10.18,9.74-17.94,13.22-7.76,3.48-17.78,5.21-30.07,5.21h-46.07v66.44h-30.31v-173.13ZM1085.2,990.65h44.37c3.39,0,6.87-.48,10.43-1.45,3.55-.97,6.83-2.55,9.82-4.73,2.99-2.18,5.41-5.09,7.27-8.73,1.86-3.64,2.79-8.2,2.79-13.7s-.81-10.34-2.43-14.06c-1.62-3.72-3.8-6.67-6.55-8.85-2.75-2.18-5.9-3.68-9.46-4.49-3.56-.81-7.36-1.21-11.4-1.21h-44.86v57.22Z"/>
        <path class="cls-4" d="M1212.75,956.46h25.95v24.25h.48c.81-3.4,2.38-6.71,4.73-9.94,2.34-3.23,5.17-6.18,8.49-8.85,3.31-2.67,6.99-4.81,11.03-6.43,4.04-1.61,8.16-2.42,12.37-2.42,3.23,0,5.46.08,6.67.24,1.21.16,2.46.33,3.76.48v26.67c-1.94-.32-3.92-.61-5.94-.85-2.02-.24-4-.36-5.94-.36-4.69,0-9.09.93-13.22,2.79-4.12,1.86-7.72,4.61-10.79,8.24-3.07,3.64-5.5,8.12-7.27,13.46-1.78,5.33-2.67,11.48-2.67,18.43v59.65h-27.64v-125.36Z"/>
        <path class="cls-4" d="M1351.2,1085.22c-10.02,0-18.95-1.66-26.79-4.97-7.84-3.31-14.47-7.88-19.88-13.7-5.42-5.82-9.54-12.77-12.37-20.85-2.83-8.08-4.24-16.97-4.24-26.67s1.41-18.35,4.24-26.43c2.83-8.08,6.95-15.03,12.37-20.85,5.41-5.82,12.04-10.39,19.88-13.7,7.84-3.31,16.77-4.97,26.79-4.97s18.95,1.66,26.79,4.97c7.84,3.32,14.47,7.88,19.88,13.7,5.41,5.82,9.54,12.77,12.37,20.85,2.83,8.09,4.24,16.89,4.24,26.43s-1.42,18.59-4.24,26.67c-2.83,8.08-6.95,15.03-12.37,20.85-5.42,5.82-12.04,10.39-19.88,13.7-7.84,3.31-16.77,4.97-26.79,4.97ZM1351.2,1063.39c6.14,0,11.48-1.29,16-3.88,4.52-2.58,8.24-5.98,11.15-10.18,2.91-4.2,5.05-8.93,6.43-14.19,1.37-5.25,2.06-10.63,2.06-16.12s-.69-10.67-2.06-16c-1.38-5.33-3.52-10.06-6.43-14.18-2.91-4.12-6.63-7.48-11.15-10.06-4.53-2.58-9.86-3.88-16-3.88s-11.48,1.3-16,3.88c-4.53,2.59-8.24,5.94-11.15,10.06-2.91,4.12-5.05,8.85-6.43,14.18-1.38,5.33-2.06,10.67-2.06,16s.69,10.87,2.06,16.12c1.37,5.25,3.52,9.98,6.43,14.19,2.91,4.2,6.63,7.6,11.15,10.18,4.52,2.59,9.86,3.88,16,3.88Z"/>
        <path class="cls-4" d="M1555.61,1081.82h-26.19v-16.97h-.48c-3.72,7.27-9.13,12.49-16.25,15.64-7.12,3.15-14.63,4.73-22.55,4.73-9.86,0-18.47-1.74-25.82-5.21-7.36-3.47-13.46-8.2-18.31-14.19-4.85-5.98-8.49-13.05-10.91-21.22-2.42-8.16-3.64-16.93-3.64-26.31,0-11.31,1.53-21.1,4.61-29.34,3.07-8.24,7.15-15.03,12.24-20.37s10.91-9.25,17.46-11.76c6.55-2.5,13.22-3.76,20-3.76,3.88,0,7.84.36,11.88,1.09,4.04.73,7.92,1.9,11.64,3.52,3.72,1.62,7.15,3.68,10.31,6.18,3.15,2.51,5.78,5.46,7.88,8.85h.48v-64.01h27.64v173.13ZM1459.1,1020.48c0,5.33.69,10.59,2.06,15.76,1.37,5.18,3.47,9.78,6.3,13.82,2.83,4.04,6.43,7.27,10.79,9.7,4.36,2.42,9.54,3.64,15.52,3.64s11.43-1.29,15.88-3.88c4.44-2.58,8.08-5.98,10.91-10.18,2.83-4.2,4.93-8.93,6.31-14.19,1.37-5.25,2.06-10.63,2.06-16.12,0-13.9-3.11-24.73-9.34-32.49-6.22-7.76-14.67-11.64-25.34-11.64-6.47,0-11.92,1.33-16.37,4-4.45,2.67-8.08,6.15-10.91,10.43-2.83,4.28-4.85,9.13-6.06,14.55-1.21,5.42-1.82,10.95-1.82,16.61Z"/>
        <path class="cls-4" d="M1695.76,1081.82h-27.16v-17.46h-.48c-3.39,6.3-8.45,11.36-15.15,15.15-6.71,3.8-13.54,5.7-20.49,5.7-16.49,0-28.41-4.08-35.77-12.25-7.36-8.16-11.03-20.49-11.03-36.98v-79.53h27.64v76.87c0,11,2.1,18.75,6.31,23.28,4.2,4.53,10.1,6.79,17.7,6.79,5.82,0,10.67-.89,14.55-2.67,3.88-1.78,7.03-4.16,9.46-7.15,2.42-2.99,4.16-6.58,5.21-10.79,1.05-4.2,1.58-8.73,1.58-13.58v-72.74h27.64v125.36Z"/>
        <path class="cls-4" d="M1712.24,956.46h20.85v-37.58h27.64v37.58h24.98v20.61h-24.98v66.92c0,2.91.12,5.42.36,7.52.24,2.1.81,3.88,1.7,5.33.89,1.45,2.22,2.55,4,3.27,1.78.73,4.2,1.09,7.27,1.09,1.94,0,3.88-.04,5.82-.12,1.94-.08,3.88-.36,5.82-.85v21.34c-3.07.32-6.06.64-8.97.97-2.91.32-5.9.48-8.97.48-7.27,0-13.14-.69-17.58-2.06-4.45-1.37-7.92-3.4-10.43-6.06-2.51-2.67-4.21-6.02-5.09-10.06-.89-4.04-1.42-8.65-1.58-13.82v-73.96h-20.85v-20.61Z"/>
        <path class="cls-4" d="M1863.06,1085.22c-10.02,0-18.95-1.66-26.79-4.97-7.84-3.31-14.47-7.88-19.88-13.7-5.42-5.82-9.54-12.77-12.37-20.85-2.83-8.08-4.24-16.97-4.24-26.67s1.41-18.35,4.24-26.43c2.83-8.08,6.95-15.03,12.37-20.85,5.41-5.82,12.04-10.39,19.88-13.7,7.84-3.31,16.77-4.97,26.79-4.97s18.95,1.66,26.79,4.97c7.84,3.32,14.47,7.88,19.88,13.7,5.41,5.82,9.54,12.77,12.37,20.85,2.83,8.09,4.24,16.89,4.24,26.43s-1.42,18.59-4.24,26.67c-2.83,8.08-6.95,15.03-12.37,20.85-5.42,5.82-12.04,10.39-19.88,13.7-7.84,3.31-16.77,4.97-26.79,4.97ZM1863.06,1063.39c6.14,0,11.48-1.29,16-3.88,4.52-2.58,8.24-5.98,11.15-10.18,2.91-4.2,5.05-8.93,6.43-14.19,1.37-5.25,2.06-10.63,2.06-16.12s-.69-10.67-2.06-16c-1.38-5.33-3.52-10.06-6.43-14.18-2.91-4.12-6.63-7.48-11.15-10.06-4.53-2.58-9.86-3.88-16-3.88s-11.48,1.3-16,3.88c-4.53,2.59-8.24,5.94-11.15,10.06-2.91,4.12-5.05,8.85-6.43,14.18-1.38,5.33-2.06,10.67-2.06,16s.69,10.87,2.06,16.12c1.37,5.25,3.52,9.98,6.43,14.19,2.91,4.2,6.63,7.6,11.15,10.18,4.52,2.59,9.86,3.88,16,3.88Z"/>
      </g>
    </g>
  </g>
  <line class="cls-3" x1="2158.15" y1="-7391" x2="2158.15" y2="8992"/>
  <line class="cls-3" x1="-6911" y1="1160.38" x2="9472" y2="1160.38"/>
</svg>